<svg width="213" height="175" viewBox="0 0 213 175" fill="none" xmlns="http://www.w3.org/2000/svg">
<path opacity="0.5" d="M97.716 159.001C91.477 159.016 85.2381 159.118 79.0119 159.591C76.6637 159.77 74.3666 160.163 72.0133 160.32C67.3117 160.636 62.6945 161.226 57.9776 161.499C54.179 161.719 50.365 161.847 46.5766 162.126C42.912 162.395 39.2122 162.317 35.5772 161.896C32.9681 161.576 30.3487 161.397 27.783 160.884C24.913 160.311 21.7973 159.902 18.807 159.916C14.5428 159.938 10.3912 159.939 6.31123 160.952C4.88131 161.31 3.12653 161.89 2.03938 162.635C-0.449548 164.341 -0.774413 168.599 1.69917 170.369C5.8866 173.347 14.8217 174.516 20.6897 174.571C27.1205 174.632 33.3671 174.305 39.8081 174.114C45.7938 173.935 51.7616 173.681 57.7576 173.69C70.0001 173.708 82.2427 173.69 94.4648 173.131C105.945 172.606 117.456 172.784 128.967 172.784C140.767 172.784 152.488 172.847 164.203 173.919C169.294 174.392 174.499 174.551 179.615 174.878C184.22 175.171 188.624 174.878 193.201 174.603C197.06 174.384 200.834 173.693 204.351 172.561C207.114 171.657 212.04 168.854 212.887 166.7C215.263 160.661 179.408 160.804 173.903 160.82C167.746 160.834 161.538 160.974 155.383 160.82C152.795 160.752 150.244 160.407 147.709 160.029C145.174 159.65 142.657 159.746 140.104 159.587C129.463 158.926 118.799 159.023 108.13 159.023C104.666 159.016 101.192 158.994 97.716 159.001Z" fill="#EED5D5"/>
<path d="M192.035 114.224L192.088 115.82L189.267 116.844L187.639 115.614V113.757L189.209 113.67L189.259 113.261L189.772 112.932L192.035 114.224Z" fill="#E1CFB5"/>
<path d="M134.333 126.825L134.941 140.852L133.162 164.705L130.505 164.895L127.275 143.231L122.805 124.899L134.333 126.825Z" fill="#353A85"/>
<path d="M130.645 166.676H134.637L134.803 165.359L133.373 164.373L130.497 164.579L130.645 166.676Z" fill="#292949"/>
<path d="M115.511 122.652L114.93 133.256L116.658 164.784L119.32 164.919L123.312 144.239L126.831 121.562L115.511 122.652Z" fill="#353A85"/>
<path d="M119.215 166.778L115.329 166.939L114.932 165.821L116.444 164.457L119.323 164.602L119.215 166.778Z" fill="#292949"/>
<path d="M130.991 90.6219L122.683 89.733C122.683 89.733 118.062 90.2263 114.924 101.178C113.18 107.271 112.648 116.87 112.521 124.19C112.717 125.245 113.843 129.805 118.678 129.03C126.955 127.698 131.367 126.366 134.965 127.033C138.036 127.698 137.775 123.48 137.439 120.262L136.215 110.302L130.991 90.6219Z" fill="#435D2B"/>
<path d="M129.387 80.3031C127.293 79.8415 125.136 79.43 123.042 79.8441C122.585 79.9338 122.091 80.0947 121.842 80.4904C121.753 80.6481 121.687 80.8177 121.647 80.9942C121.118 82.9566 120.446 85.8634 121.742 87.6729C121.995 88.0116 122.313 88.2967 122.678 88.5117C123.152 88.8077 123.677 89.0134 124.227 89.1184C124.113 89.6073 123.956 90.0849 123.756 90.5454C124.235 91.2655 126.471 91.3525 126.886 90.6614C126.91 90.0627 126.931 89.4639 126.955 88.8652C127.233 88.758 127.499 88.6218 127.748 88.4589C128.675 87.8219 129.362 86.8933 129.699 85.8212C130.098 84.6606 130.658 83.5554 131.02 82.3737C131.153 81.9411 131.258 81.4505 131.02 81.0548C130.783 80.6592 130.256 80.4983 129.786 80.3928L129.387 80.3031Z" fill="#C17E72"/>
<path d="M130.304 85.7501C131.309 84.7187 132.488 83.2785 132.577 81.9702C132.651 80.8861 132.503 79.4116 131.895 78.4752C131.327 77.5995 129.871 77.1194 129.006 76.613L126.561 75.1807C126.401 75.0707 126.221 74.9912 126.032 74.9459C125.799 74.9228 125.564 74.9488 125.342 75.0224L119.553 76.518C119.183 76.613 118.76 76.7528 118.625 77.1089C118.564 77.3342 118.57 77.5723 118.641 77.7947C118.86 78.7944 119.281 79.8125 119.384 80.8254C119.545 81.6167 119.513 82.3368 120.098 82.9224C120.682 83.508 121.38 83.7718 121.821 84.4444C122.138 84.9297 122.26 85.5153 122.511 86.027C123.64 88.401 128.208 87.7679 129.789 86.2539C129.95 86.1061 130.124 85.9347 130.304 85.7501Z" fill="#353A85"/>
<path d="M129.228 91.3314L134.941 85.1749L133.595 68.4913L136.104 67.3914L141.383 84.1805L139.517 89.3452L131.861 99.6139L129.228 91.3314Z" fill="#435D2B"/>
<path d="M135.565 67.6262V66.099C135.565 65.5424 134.158 64.2526 133.801 63.7751C133.598 63.5114 132.662 64.9595 132.651 65.2022C132.63 65.611 133.222 66.4894 133.386 66.914L132.887 67.6262L133.593 68.4914L135.565 67.6262Z" fill="#C17E72"/>
<path d="M119.014 92.6133L112.55 87.2482L111.712 70.5329L109.082 69.7679L106.032 87.0978L108.554 91.9776L117.483 101.167L119.014 92.6133Z" fill="#435D2B"/>
<path d="M109.643 69.9235C109.643 69.9235 109.447 68.4332 109.444 68.4095C109.373 67.8582 110.597 66.3863 110.89 65.8746C111.059 65.5845 112.175 66.9033 112.212 67.1407C112.286 67.5443 111.813 68.4939 111.707 68.937L112.294 69.578L111.707 70.5249L109.643 69.9235Z" fill="#C17E72"/>
<path d="M17.5328 82.2074C16.4919 81.6971 15.5158 81.0649 14.6249 80.3241C14.3341 80.0814 14.0222 79.7438 14.1253 79.3798C14.2416 78.963 14.7915 78.8733 15.225 78.9129C16.042 78.9847 16.836 79.2207 17.5592 79.6066C17.7363 79.5486 17.5063 79.2637 17.5856 79.0949C17.6092 79.0594 17.6415 79.0306 17.6795 79.0112C17.7174 78.9918 17.7598 78.9825 17.8024 78.9841C18.9708 78.9182 19.4255 80.5061 19.8273 81.2684C19.0078 81.6984 18.1619 81.7142 17.4482 82.3631L17.5328 82.2074Z" fill="#EFBFA5"/>
<path d="M67.6507 101.091L69.176 101.313C69.7285 101.394 72.1446 100.178 72.6575 99.8935C72.9535 99.7299 70.7251 98.6116 70.4898 98.5746C70.0853 98.4955 69.1284 98.9518 68.6843 99.0521L68.0499 98.4559L67.0903 99.0283L67.6507 101.091Z" fill="#EFBFA5"/>
<path d="M30.5572 163.312L30.3458 164.948L33.4122 167L35.26 165.578L33.8325 163.732L30.7661 161.68L30.5572 163.312Z" fill="#292949"/>
<path d="M30.4542 162.764L32.8175 141.923L29.9731 118.592L30.6128 113.628L43.3148 113.148L43.7721 121.225L41.6414 141.955L33.6185 163.829L30.4542 162.764Z" fill="#292949"/>
<path d="M45.337 90.54L51.047 93.8873L55.5753 100.221L67.6402 98.477L68.0182 101.793L54.3143 106.351L47.2906 103.729L45.337 90.54Z" fill="#941C2F"/>
<path d="M52.6357 115.482L52.6674 136.513L48.4272 163.587L45.3714 163.558L43.6928 138.52L39.7645 113.459L52.6357 115.482Z" fill="#292949"/>
<path d="M45.3767 164.842L48.6626 166.523L50.3306 164.893L48.6969 163.228L45.3926 163.197L45.3767 164.842Z" fill="#292949"/>
<path d="M28.6566 122.633C28.6857 121.723 28.7385 120.964 28.7438 120.692C28.8099 118.247 29.0293 115.807 29.336 113.38C29.6003 111.204 29.9572 105.805 30.3299 103.642C30.6392 101.856 31.7125 97.4009 32.487 95.7444C34.4168 91.6269 33.8088 91.2471 42.2917 90.0258C45.9926 89.4982 46.8835 91.7983 49.9182 94.4545C50.2169 94.7183 50.201 96.2746 50.2724 96.6887C50.394 97.4141 50.5235 98.1421 50.6742 98.8648C50.7932 99.4319 50.9227 99.9964 51.0681 100.561C51.0681 100.561 53.6164 112.133 55.2977 114.591C56.9789 117.049 60.4657 120.484 54.6395 122.581C53.6148 122.935 52.5639 123.21 51.4963 123.401C51.4963 123.401 46.7381 122.873 44.2823 122.889C42.0228 122.916 39.7693 123.126 37.544 123.517C36.061 123.765 34.5463 124.124 33.2193 124.815C31.953 125.474 31.041 126.445 29.7563 127.128C29.6403 127.206 29.5024 127.246 29.3624 127.242C28.6302 127.139 28.5958 124.554 28.6566 122.633Z" fill="#941C2F"/>
<path d="M41.533 91.0914C41.1841 91.4184 40.243 91.7851 39.1168 91.7007C39.0054 91.6935 38.8988 91.6526 38.8114 91.5833C38.724 91.514 38.6599 91.4196 38.6278 91.3129C38.4486 90.7002 38.31 90.0763 38.2128 89.4454C37.3774 89.4111 36.3835 89.2819 36.0081 88.5354C35.9051 88.2931 35.8426 88.0356 35.8231 87.7731C35.6856 86.6934 35.5472 85.6145 35.408 84.5366C35.334 84.1666 35.334 83.7856 35.408 83.4156C35.5825 82.7799 36.1694 82.3446 36.7588 82.0466C38.263 81.2843 40.1002 81.097 41.652 81.7591C42.0746 81.9178 42.4476 82.1854 42.7331 82.5346C43.1482 83.0885 43.1931 83.8244 43.2222 84.5155L43.3015 86.4279C43.3306 87.1585 43.3015 88.0105 42.7331 88.4642C42.4265 88.7068 42.0062 88.7939 41.7524 89.0893C41.3109 89.6116 41.6387 90.4135 41.533 91.0914Z" fill="#EFBFA5"/>
<path d="M47.5602 78.0663C47.6349 77.763 47.7303 77.4651 47.8457 77.1748C48.11 76.547 48.4695 75.9641 48.6255 75.3073C48.7815 74.6505 48.6651 73.8618 48.1126 73.4609C47.7349 73.2354 47.2955 73.1348 46.857 73.1733C45.4096 73.1934 43.9939 73.5996 42.7569 74.3498C41.5859 75.062 40.6157 75.9324 39.1909 75.8586C37.8506 75.7794 37.0391 76.2278 35.9209 77.0614C34.7128 77.9608 32.9231 78.644 31.9054 79.6991C31.4904 80.1557 31.1929 80.706 31.0383 81.3028C30.763 82.3321 30.782 83.4177 31.0932 84.4368C31.4043 85.4558 31.9952 86.3676 32.7989 87.0689C33.1684 87.3727 33.5638 87.6436 33.9805 87.8787C34.8344 88.3746 35.8653 88.9971 36.8249 88.9839C36.6029 88.1926 35.1225 85.9294 35.5296 85.0985C36.1746 83.7796 38.4586 83.471 39.7275 83.3576C41.1127 83.2336 42.556 83.7981 43.9042 83.5976C44.877 83.4552 45.9212 82.6375 46.5636 81.9174C47.354 81.0364 47.2773 79.1742 47.5602 78.0663Z" fill="#292949"/>
<path d="M34.882 91.8379L28.2178 93.5445L20.1895 81.097L16.8032 82.0071L22.4497 99.9304L35.4451 101.492L34.882 91.8379Z" fill="#941C2F"/>
<path d="M197.092 160.904C197.21 160.75 197.365 160.628 197.544 160.551C197.723 160.474 197.919 160.445 198.112 160.466C198.297 160.497 198.471 160.572 198.62 160.685C198.769 160.797 198.889 160.944 198.969 161.113C199.06 161.347 199.111 161.595 199.117 161.846C199.223 163.138 199.215 166.203 197.488 166.647C196.764 166.831 196.167 166.317 195.971 165.668C195.68 164.689 196.111 161.981 197.092 160.904Z" fill="#292949"/>
<path d="M196.479 141.406L196.568 149.285C196.463 152.785 197.01 156.304 196.907 159.804C196.88 160.609 196.671 161.458 196.875 162.255C197.079 163.051 197.708 163.175 198.361 162.782C199.236 162.255 199.093 161.015 199.238 160.113C199.64 157.636 200.108 155.17 200.526 152.693C200.729 151.479 200.309 149.778 200.401 148.552L201.676 141.957L196.479 141.406Z" fill="#F4C7B3"/>
<path d="M205.501 128.684L202.064 143.92L201.335 158.303L195.884 158.182L194.403 117.943L204.967 118.133L205.501 128.684Z" fill="#292949"/>
<path d="M189.296 160.617C189.421 160.469 189.582 160.357 189.764 160.291C189.946 160.226 190.142 160.209 190.332 160.242C190.516 160.283 190.687 160.367 190.831 160.488C190.975 160.609 191.088 160.762 191.16 160.936C191.24 161.175 191.278 161.427 191.273 161.68C191.326 162.977 191.184 166.048 189.447 166.388C188.717 166.53 188.141 165.982 187.977 165.32C187.729 164.323 188.273 161.637 189.296 160.617Z" fill="#292949"/>
<path d="M192.17 142.522L191.707 150.387C191.667 152.574 191.377 154.745 191.149 156.916C190.938 158.934 191.266 161.033 190.211 162.867C189.878 163.444 189.209 163.827 188.741 163.13C188.382 162.603 188.596 161.693 188.527 161.081C188.244 158.588 187.892 156.101 187.591 153.608C187.443 152.387 187.945 150.707 187.914 149.477L186.951 142.822L192.17 142.522Z" fill="#F4C7B3"/>
<path d="M185.273 127.753L184.829 142.54L187.155 157.496L192.698 157.66L192.455 141.477L195.387 128.057L196.373 119.27L187.575 118.236L185.273 127.753Z" fill="#292949"/>
<path d="M192.23 87.971L201.707 87.7468L207.203 97.9417L205.25 107.493L204.901 118.922L191.385 119.104L186.936 118.384L188.117 106.174L187.44 89.8623L192.23 87.971Z" fill="#C9EF96"/>
<path d="M193.473 79.1556C195.339 75.199 200.61 77.3092 201.351 81.1075C201.824 83.579 199.638 86.4858 197.079 86.9105C197.058 87.0055 196.783 87.81 196.775 87.8838C196.726 88.2669 196.649 88.646 196.545 89.0181C196.508 89.1605 194.377 88.509 194.139 88.4351C194.053 88.42 193.977 88.3716 193.928 88.3006C193.854 88.1555 194.295 87.0503 194.327 86.9026C194.358 86.7549 194.403 86.5491 194.443 86.375C193.28 85.6444 192.646 84.2912 192.569 82.9724C192.492 81.6535 192.913 80.3399 193.473 79.1556Z" fill="#F4C7B3"/>
<path d="M197.43 75.8057C197.663 76.1493 197.792 76.5519 197.803 76.9663C197.843 77.206 197.832 77.4516 197.769 77.6864C197.465 78.5991 196.542 78.4513 195.789 78.6756C194.861 78.9657 194.043 79.5283 193.441 80.2898C192.532 81.4399 192.709 83.0647 192.878 84.4601C192.936 84.9534 193.084 85.6893 192.664 86.077C192.244 86.4648 191.369 86.3118 190.94 86.0375C190.512 85.7631 190.248 85.3754 189.801 85.2461C189.354 85.1169 188.654 85.2461 188.479 84.7898C188.453 84.6541 188.417 84.5202 188.374 84.3889C188.149 83.98 187.438 84.3546 187.092 84.046C186.877 83.8561 186.917 83.5052 187.025 83.2362C187.17 82.9834 187.254 82.7009 187.271 82.4106C187.214 82.1696 187.125 81.9372 187.007 81.7195C186.927 81.4857 186.916 81.2342 186.974 80.9942C187.032 80.7541 187.157 80.5355 187.335 80.3637C188.001 79.7438 189.135 79.9971 189.841 79.4194C190.208 79.1213 190.391 78.6492 190.562 78.2034C190.734 77.7576 190.935 77.2934 191.324 77.0191C191.802 76.6841 192.429 76.816 192.91 76.4071C193.193 76.1671 193.402 75.8374 193.703 75.6343C194.11 75.3705 194.869 75.2122 195.352 75.1067C195.73 75.0158 196.125 75.0332 196.492 75.1569C196.86 75.2806 197.185 75.5055 197.43 75.8057V75.8057Z" fill="#292949"/>
<path d="M200.169 82.7536C200.047 84.1121 199.215 85.5048 199.712 86.7656C200.209 88.0265 201.766 88.4247 203.101 88.6331C203.32 88.6674 206.127 89.2161 206.146 89.1607C206.46 88.2401 206.783 87.2984 207.367 86.5229C207.951 85.7474 208.853 85.1487 209.807 85.1909C209.543 85.1144 209.437 84.7662 209.498 84.4893C209.59 84.2155 209.707 83.9506 209.847 83.6979C209.983 83.3757 210.028 83.0225 209.977 82.6766C209.926 82.3306 209.782 82.0052 209.559 81.7355C208.654 80.6962 206.796 80.8887 206.053 79.7255C205.593 79.0054 205.76 78.0479 205.57 77.2065C205.197 75.5816 203.513 75.0699 202.305 74.2232C201.031 73.3316 199.796 72.783 198.202 72.8753C196.227 72.9887 194.57 74.8061 195.12 76.7422C195.823 79.227 199.682 79.4327 200.142 81.928C200.19 82.2007 200.199 82.4785 200.169 82.7536Z" fill="#292949"/>
<path d="M198.905 87.9183L195.966 92.0648L194.583 91.9514L192.281 87.7468L198.905 87.9183Z" fill="#F9F9F9"/>
<path d="M192.278 87.7441L186.936 88.0343C186.936 88.0343 180.938 90.978 180.541 90.7617C180.144 90.5454 173.668 77.5941 173.668 77.5941L170.496 78.6228L174.461 93.4337L178.297 97.3903L189.135 95.5887L192.278 87.7441Z" fill="#C9EF96"/>
<path d="M170.985 78.4356L170.134 77.1668C169.822 76.7052 170.263 74.843 170.3 74.2653C170.321 73.9303 171.91 74.6188 172.053 74.8113C172.299 75.1411 172.296 76.1988 172.399 76.6446L173.211 76.9585L173.105 78.0689L170.985 78.4356Z" fill="#F4C7B3"/>
<path d="M58.7554 40.0909L42.0565 32.5628V12.5239L58.7554 20.052V40.0909Z" fill="#373F8C"/>
<path d="M58.7554 40.0909L75.4517 32.5628V12.5239L58.7554 20.052V40.0909Z" fill="#333A7F"/>
<path d="M42.0565 12.5239L58.7554 20.052L75.4517 12.5239L58.7554 5.68958L42.0565 12.5239Z" fill="#3F4991"/>
<path d="M192.096 28.9069L178.067 22.5816V5.74231L192.096 12.0702V28.9069Z" fill="#5D66D3"/>
<path d="M192.096 28.9069L206.127 22.5816V5.74231L192.096 12.0702V28.9069Z" fill="#474EBB"/>
<path d="M178.067 5.74234L192.096 12.0703L206.127 5.74234L192.096 0L178.067 5.74234Z" fill="#717DDB"/>
<path d="M107.208 44.8915L105.241 44.0026L105.587 43.2376L107.554 44.1265L107.208 44.8915ZM103.708 43.3088L101.408 42.2696L101.757 41.5046L104.054 42.5439L103.708 43.3088ZM99.8775 41.5785L97.5777 40.5392L97.924 39.7743L100.224 40.8136L99.8775 41.5785ZM96.0444 39.8534L93.7605 38.7983L94.1068 38.0334L96.4066 39.07L96.0444 39.8534ZM92.214 38.1231L89.9168 37.0838L90.2631 36.3189L92.5603 37.3581L92.214 38.1231ZM88.3836 36.3927L86.0838 35.3535L86.4327 34.5885L88.7378 35.633L88.3836 36.3927ZM84.5532 34.6597L82.2533 33.6205L82.5996 32.8582L84.8995 33.8948L84.5532 34.6597ZM80.7201 32.9294L78.4282 31.8822L78.7745 31.1173L81.0743 32.1565L80.7201 32.9294ZM76.8897 31.199L74.5925 30.1598L74.9388 29.3948L77.236 30.4341L76.8897 31.199ZM73.0593 29.466L70.7594 28.4268L71.1084 27.6645L73.4056 28.7011L73.0593 29.466ZM69.2289 27.7199L66.929 26.6806L67.2753 25.9156L69.5752 26.9549L69.2289 27.7199Z" fill="#D67086"/>
<path d="M24.9266 44.9574L24.4244 44.2822L25.4633 43.5146L25.9655 44.1898L24.9266 44.9574ZM27.3058 43.1901L26.8062 42.5149L28.8337 41.0167L29.3333 41.6893L27.3058 43.1901ZM30.6842 40.6922L30.1845 40.017L32.2121 38.5187L32.7117 39.1914L30.6842 40.6922ZM34.0652 38.1916L33.5629 37.519L35.5905 36.0182L36.0901 36.6934L34.0652 38.1916ZM37.4541 35.6937L36.9519 35.0185L38.9794 33.5202L39.4817 34.1955L37.4541 35.6937ZM40.8325 33.1958L40.3303 32.5205L42.3578 31.0223L42.8601 31.6949L40.8325 33.1958ZM44.2109 30.6952L43.7113 30.0226L45.7388 28.5217L46.2385 29.197L44.2109 30.6952ZM47.5893 28.1973L47.0897 27.5247L49.1172 26.0238L49.6168 26.6991L47.5893 28.1973Z" fill="#D67086"/>
<path d="M19.0316 69.644L5 63.3188V46.4795L19.0316 52.8048V69.644Z" fill="#5D66D3"/>
<path d="M19.0316 69.644L33.0606 63.3188V46.4795L19.0316 52.8048V69.644Z" fill="#474EBB"/>
<path d="M5 46.4795L19.0316 52.8048L33.0606 46.4795L19.0316 40.7372L5 46.4795Z" fill="#717DDB"/>
<path d="M106.544 48.8218L106.232 48.0304L106.304 48.0014L106.613 48.7927L106.544 48.8218ZM108.178 48.1729L107.866 47.3816L110.214 46.4531L110.523 47.2444L108.178 48.1729ZM112.085 46.6245L111.776 45.8332L114.121 44.9021L114.433 45.6934L112.085 46.6245ZM115.995 45.0735L115.683 44.2822L118.03 43.3537L118.34 44.1451L115.995 45.0735ZM119.902 43.5252L119.593 42.7339L121.937 41.8054L122.249 42.5835L119.902 43.5252ZM123.812 41.9637L123.5 41.1855L125.847 40.2544L126.156 41.0457L123.812 41.9637ZM127.721 40.4153L127.409 39.624L129.754 38.6955L130.066 39.4736L127.721 40.4153ZM131.628 38.8643L131.319 38.0862L133.664 37.1551L133.973 37.9464L131.628 38.8643ZM135.528 37.3265L135.216 36.5352L137.56 35.6067L137.872 36.3849L135.528 37.3265ZM139.435 35.7755L139.125 34.9974L141.47 34.0663L141.779 34.8576L139.435 35.7755ZM143.344 34.2272L143.033 33.4359L145.377 32.5074L145.689 33.2987L143.344 34.2272ZM147.252 32.6789L146.942 31.8875L149.287 30.9564L149.596 31.7477L147.252 32.6789ZM151.161 31.1279L150.86 30.3577L153.205 29.4292L153.517 30.2205L151.161 31.1279ZM155.089 29.5795L154.78 28.7882L157.125 27.8597L157.434 28.651L155.089 29.5795ZM158.999 28.0285L158.687 27.2504L161.032 26.3193L161.344 27.1106L158.999 28.0285ZM162.906 26.4802L162.597 25.6889L164.942 24.7604L165.251 25.5517L162.906 26.4802ZM166.816 24.9292L166.504 24.1511L168.849 23.22L169.161 24.0113L166.816 24.9292ZM170.723 23.3809L170.414 22.5895L172.759 21.6611L173.068 22.4524L170.723 23.3809ZM174.633 21.8325L174.321 21.0412L176.668 20.1101L176.978 20.9014L174.633 21.8325ZM178.54 20.2815L178.231 19.4902L180.575 18.5617L180.887 19.353L178.54 20.2815ZM182.45 18.7332L182.138 17.9419L184.485 17.0107L184.794 17.8021L182.45 18.7332Z" fill="#D67086"/>
<path d="M120.613 71.9125L92.1664 59.0878V24.9503L120.613 37.775V71.9125Z" fill="#5D66D3"/>
<path d="M120.613 71.9125L149.06 59.0878V24.9503L120.613 37.775V71.9125Z" fill="#474EBB"/>
<path d="M92.1664 24.9504L120.613 37.775L149.06 24.9504L120.613 13.3048L92.1664 24.9504Z" fill="#717DDB"/>
<path d="M167.672 63.5613L165.37 62.5326L165.714 61.7676L168.016 62.7964L167.672 63.5613ZM163.834 61.8468L161.532 60.8181L161.875 60.0531L164.178 61.0818L163.834 61.8468ZM159.996 60.1323L157.693 59.1035L158.037 58.3386L160.339 59.3673L159.996 60.1323ZM156.147 58.4177L153.844 57.389L154.188 56.6214L156.49 57.6528L156.147 58.4177ZM152.308 56.7032L150.006 55.6745L150.35 54.9069L152.652 55.9356L152.308 56.7032ZM148.481 54.9887L146.178 53.96L146.522 53.1924L148.824 54.2211L148.481 54.9887ZM144.642 53.2715L142.34 52.2428L142.683 51.4779L144.986 52.5066L144.642 53.2715ZM140.815 51.557L138.512 50.5283L138.856 49.7634L141.158 50.7921L140.815 51.557ZM136.976 49.8425L134.674 48.8138L135.017 48.0488L137.32 49.0775L136.976 49.8425Z" fill="#D67086"/>
<path d="M83.3267 63.8568L82.8693 63.1525L84.9841 61.7836L85.4414 62.4878L83.3267 63.8568ZM86.8557 61.5752L86.3984 60.8709L88.5132 59.4993L88.9705 60.2036L86.8557 61.5752ZM90.3848 59.2909L89.9274 58.5814L92.0422 57.2124L92.4996 57.9166L90.3848 59.2909ZM93.9138 56.9987L93.4565 56.2944L95.5713 54.9228L96.0286 55.6271L93.9138 56.9987ZM97.4429 54.7144L96.9856 54.0102L99.1004 52.6412L99.5577 53.3455L97.4429 54.7144ZM100.972 52.4302L100.512 51.7233L102.627 50.3543L103.084 51.0585L100.972 52.4302ZM104.498 50.1485L104.041 49.4442L106.156 48.0726L106.613 48.7769L104.498 50.1485Z" fill="#D67086"/>
<path d="M73.6012 99.8804L54.1478 91.11V67.7634L73.6012 76.5339V99.8804Z" fill="#5D66D3"/>
<path d="M73.6012 99.8804L93.0546 91.11V67.7634L73.6012 76.5339V99.8804Z" fill="#474EBB"/>
<path d="M54.1478 67.7634L73.6012 76.5338L93.0546 67.7634L73.6012 59.8L54.1478 67.7634Z" fill="#717DDB"/>
<path d="M178.548 79.6753L159.092 70.9022V47.5557L178.548 56.3261V79.6753Z" fill="#373F8C"/>
<path d="M178.548 79.6753L198.001 70.9022V47.5557L178.548 56.3261V79.6753Z" fill="#333A7F"/>
<path d="M159.092 47.5557L178.548 56.3262L198.001 47.5557L178.548 39.5924L159.092 47.5557Z" fill="#3F4991"/>
<path d="M195.86 115.232C195.286 115.815 194.493 116.319 193.679 116.213C193.354 116.174 193.031 116.116 192.712 116.044C192.456 116.002 192.214 115.902 192.003 115.752C191.898 115.671 191.819 115.562 191.776 115.437C191.733 115.312 191.727 115.178 191.76 115.05C191.879 114.696 192.31 114.601 192.627 114.412C193.018 114.172 193.259 113.744 193.568 113.399C194.274 112.607 195.223 112.536 196.122 112.114C196.329 112.295 196.521 112.492 196.695 112.705C197.02 113.069 197.05 113.148 196.865 113.61C196.638 114.21 196.297 114.761 195.86 115.232V115.232Z" fill="#F4C7B3"/>
<path d="M202.022 88.4484L209.715 100.141L208.559 106.654L196.645 114.889L194.403 112.932L202.368 102.887L202.059 96.5383L202.022 88.4484Z" fill="#C9EF96"/>
</svg>
