<svg width="355" height="494" viewBox="0 0 355 494" fill="none" xmlns="http://www.w3.org/2000/svg">
<path d="M51.9845 466.76C121.305 503.08 233.689 503.08 303.01 466.76C372.33 430.441 372.33 371.559 303.01 335.24C233.689 298.92 121.305 298.92 51.9845 335.24C-17.3282 371.551 -17.3282 430.441 51.9845 466.76Z" fill="#F5F5F5"/>
<path d="M227.392 127.84L228.627 90.4022C231.031 52.0984 258.939 62.696 255.501 97.5365L247.555 139.615C237.18 152.213 224.224 162.247 209.632 168.984L207.128 148.204L227.392 127.84Z" fill="#EDEDED"/>
<path d="M257.037 328.294C257.832 332.466 258.09 336.728 257.805 340.97C257.037 344.78 247.289 347.238 247.289 347.238C247.289 347.238 233.669 360.537 222.051 359.672C215.375 359.117 212.904 357.247 211.836 355.169C211.454 354.039 211.37 352.823 211.593 351.648C211.816 350.473 212.338 349.381 213.105 348.485C214.473 346.546 228.628 340.277 232.166 334.424C233.902 331.585 236.773 325.558 236.773 325.558L237.975 314.372L256.77 313.576L255.835 326.805L257.037 328.294Z" fill="black"/>
<path d="M273.729 188.17L261.778 250.509C266.093 276.371 265.195 302.88 259.14 328.364C255.468 338.753 242.449 335.74 234.17 328.364C236.458 305.588 237.25 282.678 236.54 259.791L234.17 243.479C234.17 243.479 232.2 235.132 232.334 203.582C232.334 187.374 241.247 152.083 241.247 152.083L273.729 188.17Z" fill="#931C2F"/>
<path d="M298.432 350.148C299.868 352.953 299.868 357.698 300.001 364.589C298.502 368.251 295.671 371.151 292.123 372.659C290.233 376.977 287.213 380.658 283.407 383.285C279.6 385.911 275.16 387.377 270.591 387.516C255.669 387.897 255.769 381.629 255.836 381.663C255.927 380.393 256.271 379.155 256.846 378.029C257.42 376.902 258.213 375.911 259.174 375.118C261.31 373.248 272.327 364.105 274.296 361.472C275.725 359.31 276.912 356.986 277.835 354.546L278.503 343.36H298.533L298.432 350.148Z" fill="black"/>
<path d="M263.713 201.608C263.713 233.193 262.578 251.86 270.59 267.86C271.499 275.034 272.814 282.146 274.529 289.159C276.899 297.575 276.499 334.182 275.53 356.035C276.639 357.669 278.047 359.059 279.674 360.128C281.301 361.197 283.115 361.922 285.012 362.263C286.91 362.604 288.853 362.554 290.732 362.115C292.611 361.676 294.387 360.858 295.961 359.706C298.575 357.848 300.486 355.106 301.369 351.949C306.644 317.801 310.249 290.787 297.229 265.609C301.402 243.548 300.902 221.868 299.6 197.867C301.275 185.683 299.764 173.256 295.227 161.884C294.26 159.424 293.145 157.03 291.888 154.715L237.741 168.049C243.082 188.17 252.897 199.114 263.713 201.608Z" fill="#931C2F"/>
<g style="mix-blend-mode:multiply" opacity="0.3">
<path d="M288.284 267.722C304.976 285.419 300.102 319.671 295.862 359.706C298.476 357.848 300.387 355.106 301.27 351.949C306.545 317.801 310.15 290.787 297.131 265.609C301.303 243.548 300.803 221.868 299.501 197.868C301.176 185.683 299.665 173.256 295.128 161.884L276.366 183.911C295.027 195.997 298.533 238.284 288.284 267.722Z" fill="#3F668A"/>
</g>
<path d="M236.205 160.499C236.454 168.479 235.816 176.463 234.302 184.291C244.618 195.062 282.408 210.785 300.067 187.755C300.067 177.365 299.566 170.438 299.566 170.438L300.668 119.632L305.108 88.4627C299.168 81.3032 292.074 75.2683 284.143 70.6268C269.956 60.8604 257.437 57.9166 240.278 63.0076C236.657 71.4122 233.937 80.2039 232.166 89.2246C231.862 91.3339 231.717 93.4644 231.732 95.597V99.3374C232.099 122.403 236.105 154.369 236.205 160.499Z" fill="#EDEDED"/>
<path d="M252.897 196.101C253.059 196.101 253.216 196.037 253.334 195.921C253.452 195.805 253.522 195.646 253.531 195.478C254.566 179.928 254.265 165.243 253.965 151.079C253.397 123.615 252.93 99.8915 262.511 80.0123C262.55 79.9357 262.573 79.8515 262.579 79.7652C262.584 79.6788 262.573 79.5921 262.545 79.5107C262.516 79.4292 262.472 79.3548 262.415 79.2921C262.357 79.2294 262.288 79.1798 262.21 79.1465C262.064 79.0724 261.895 79.0598 261.74 79.1114C261.584 79.163 261.454 79.2748 261.376 79.4235C251.661 99.6144 252.129 123.476 252.696 151.113C252.997 165.243 253.297 179.893 252.262 195.409C252.253 195.578 252.307 195.744 252.412 195.873C252.518 196.002 252.667 196.084 252.83 196.101H252.897Z" fill="#B2B2B2"/>
<path d="M249.526 187.374C249.993 187.374 250.494 188.17 250.494 189.348C250.494 190.525 249.993 191.322 249.526 191.322C249.058 191.322 248.558 190.525 248.558 189.348C248.558 188.17 249.092 187.374 249.526 187.374Z" fill="#575756"/>
<path d="M249.526 164.585C249.993 164.585 250.494 165.382 250.494 166.559C250.494 167.737 249.993 168.533 249.526 168.533C249.058 168.533 248.558 167.737 248.558 166.559C248.558 165.382 249.092 164.585 249.526 164.585Z" fill="#575756"/>
<path d="M248.157 143.91C248.157 142.732 248.657 141.901 249.125 141.901C249.592 141.901 250.093 142.732 250.093 143.91C250.093 145.087 249.559 145.884 249.125 145.884C248.691 145.884 248.157 145.053 248.157 143.91Z" fill="#575756"/>
<path d="M249.626 123.199C249.159 123.199 248.624 122.437 248.558 121.294C248.491 120.152 248.958 119.286 249.426 119.251C249.893 119.216 250.427 120.013 250.494 121.156C250.561 122.299 250.127 123.165 249.659 123.199H249.626Z" fill="#575756"/>
<path d="M251.162 100.515C250.728 100.515 250.394 99.4759 250.661 98.333C250.928 97.1901 251.496 96.6359 251.93 96.6359C252.364 96.6359 252.798 97.6749 252.531 98.7832C252.264 99.8914 251.596 100.792 251.162 100.515Z" fill="#575756"/>
<path d="M252.062 77.1377C251.762 78.3844 252.062 79.5273 252.763 79.7005C253.464 79.8737 254.266 79.0078 254.533 77.7957C254.8 76.5836 254.533 75.4061 253.832 75.2329C253.131 75.0598 252.329 75.8909 252.062 77.1377Z" fill="#575756"/>
<g style="mix-blend-mode:multiply" opacity="0.2">
<path d="M236.205 160.499C236.454 168.479 235.816 176.463 234.302 184.291C244.618 195.062 282.407 210.785 300.067 187.755C300.067 177.365 299.566 170.438 299.566 170.438L300.668 119.632L283.743 110.939L281.105 141.901C269.221 160.256 261.075 187.408 246.086 182.421C240.712 177.296 231.832 95.2852 231.832 95.8393C231.732 117.658 236.105 154.369 236.205 160.499Z" fill="#3C3C3B"/>
</g>
<path d="M263.413 59.6136C263.78 59.6136 269.889 64.3583 269.889 64.3583C278.836 69.6225 268.621 94.8351 255.534 88.6012L243.35 79.7006L263.413 59.6136Z" fill="#FCAF75"/>
<g style="mix-blend-mode:multiply" opacity="0.3">
<path d="M240.346 80.0122C240.346 89.3631 240.346 100.099 250.361 100.549C262.979 97.0862 264.081 74.7827 262.746 67.5444L240.346 80.0122Z" fill="#CEA55F"/>
</g>
<path d="M248.29 33.639C259.24 33.639 265.483 39.111 265.883 50.9554C265.583 63.3886 264.982 70.9039 259.207 79.4235C257.62 81.7936 255.511 83.7369 253.055 85.0921C250.599 86.4473 247.867 87.1754 245.086 87.2159C238.409 86.8696 228.594 70.3151 227.66 58.3322C226.057 46.2453 235.972 36.9638 248.29 33.639Z" fill="#FCAF75"/>
<path d="M229.028 67.0595C231.498 73.1203 246.02 72.012 252.396 64.6006L253.131 69.0336L258.973 64.0118L264.08 70.9384L265.916 68.237C270.39 58.5052 270.39 42.5742 257.036 34.574C239.377 27.2319 217.477 48.5657 229.028 67.0595Z" fill="black"/>
<path d="M260.576 69.2069C261.336 68.0042 261.837 66.6458 262.045 65.2241C262.134 64.5275 262.063 63.8188 261.837 63.1564C261.61 62.494 261.235 61.897 260.743 61.4145C260.234 60.9599 259.595 60.693 258.924 60.6554C258.254 60.6178 257.59 60.8117 257.037 61.2067C256.683 61.5383 256.401 61.9448 256.211 62.3988C256.021 62.8529 255.927 63.3439 255.936 63.8388C255.981 64.8072 256.161 65.7637 256.47 66.6787L257.171 69.2415C257.215 69.5404 257.318 69.8267 257.473 70.0828C257.628 70.3389 257.832 70.5594 258.072 70.7307C258.326 70.8509 258.608 70.8951 258.885 70.8584C259.162 70.8217 259.424 70.7055 259.641 70.5229C260.038 70.1574 260.357 69.7089 260.576 69.2069Z" fill="#FCAF75"/>
<path d="M225.791 57.1201C234.604 63.2847 242.883 57.1201 250.427 50.1935C256.102 45.0332 258.005 37.7257 255.468 33.3274L245.453 11.8205C244.277 10.4625 242.713 9.52893 240.99 9.15527C239.268 8.78161 237.475 8.98731 235.872 9.74249C227.593 12.7555 214.107 23.1454 213.639 31.7343C215.676 37.5872 221.785 47.042 225.791 57.1201Z" fill="#EDEDED"/>
<path opacity="0.2" d="M249.492 50.9901C256.402 45.1718 258.004 37.6911 255.467 33.2928L245.452 11.7859C245.146 11.0184 244.658 10.3434 244.033 9.8229C243.409 9.30241 242.669 8.95321 241.88 8.80743C246.521 11.9936 246.053 22.2796 225.189 29.9334C228.928 28.7905 218.779 48.2195 221.85 48.0809C235.604 49.9857 237.541 34.2279 244.017 32.3231C252.863 29.4486 254.833 41.9163 249.492 50.9901Z" fill="#878787"/>
<path d="M236.74 1.4999C234.107 0.300523 231.225 -0.191745 228.361 0.0685194C225.496 0.328783 222.741 1.33319 220.349 2.9891C217.842 4.71261 215.746 7.00515 214.219 9.69319C212.692 12.3812 211.774 15.3944 211.536 18.5046C208.173 21.0311 205.457 24.372 203.624 28.2364C202.741 30.0648 202.433 32.1347 202.745 34.1542C203.056 36.1736 203.971 38.0407 205.36 39.492C205.034 40.5747 204.93 41.716 205.054 42.8428C205.179 43.9697 205.529 45.0571 206.082 46.0354C206.635 47.0136 207.379 47.8611 208.267 48.5235C209.154 49.1859 210.165 49.6486 211.235 49.8818C215.665 50.5149 220.168 49.5095 223.954 47.0419C228.281 44.9097 232.074 41.7687 235.037 37.8643C236.505 35.9364 237.526 33.6852 238.024 31.2837C238.522 28.8822 238.482 26.3943 237.908 24.0112C242.119 22.634 245.688 19.6845 247.923 15.7339C248.993 13.8421 249.54 11.6813 249.505 9.48822C249.47 7.29515 248.853 5.15448 247.723 3.30079C246.473 1.58444 244.63 0.437796 242.582 0.101944C240.533 -0.233908 238.439 0.267204 236.74 1.4999Z" fill="#EDEDED"/>
<path d="M207.763 40.2193L208.364 38.4184L206.961 37.3448C205.991 36.2503 205.366 34.8749 205.169 33.4021C204.972 31.9293 205.213 30.4293 205.86 29.1022C207.506 25.7025 209.909 22.7584 212.87 20.5133C209.649 29.0909 209.53 38.5885 212.536 47.2498H211.969C211.097 47.0044 210.285 46.5684 209.588 45.9711C208.892 45.3738 208.326 44.629 207.93 43.7865C207.661 43.2378 207.507 42.6362 207.478 42.0214C207.45 41.4066 207.546 40.7925 207.763 40.2193Z" fill="white"/>
<path d="M322.468 200.188L323.169 210.785L322.769 220.24L320.131 227.167C319.664 228.829 317.861 229.314 318.462 227.167L316.125 234.82C315.625 237.106 313.388 237.141 313.521 234.82L315.224 224.742L309.115 238.595C308.18 240.673 305.777 240.881 306.311 238.076L310.55 223.045L306.077 231.253L301.67 236.795C299.834 238.665 297.464 237.66 298.599 235.305L303.273 227.582C303.273 227.582 305.276 221.591 306.01 218.751C305.749 216.78 305.381 214.826 304.909 212.898L294.359 218.578C291.522 219.548 290.387 216.985 292.924 215.115L303.573 205.383L310.25 201.088L310.817 200.742L312.353 195.72L322.368 196.517L322.468 200.188Z" fill="#FCAF75"/>
<path d="M302.705 87.6315C314.122 100.376 319.797 115.095 328.177 136.845C330.28 154.75 328.177 178.404 323.904 202.197C321.776 202.937 319.523 203.212 317.288 203.003C315.053 202.795 312.884 202.107 310.918 200.984C311.285 183.287 307.579 163.789 309.282 146.195C300.302 140.308 291.322 123.269 281.607 108.515C278.803 87.8394 290.42 76.5491 302.705 87.6315Z" fill="#EDEDED"/>
<path d="M209.899 136.533C221.783 153.33 229.929 174.352 236.272 197.764L207.429 184.811C202.087 164.897 191.071 146.161 176.75 128.152L209.899 136.533Z" fill="#DADADA"/>
<path d="M210.134 164.724L198.383 161.295L194.811 154.611L194.01 165.105L198.751 172.689L201.722 177.642L206.262 179.2L210.835 176.084L212.271 170.334L210.134 164.724Z" fill="#FCAF75"/>
<path d="M157.988 247.704L151.913 275.098L195.244 301.038L201.32 273.678L157.988 247.704Z" fill="#FDE7C5"/>
<path d="M151.914 373.802L108.549 347.827V301.038L151.914 327.013V373.802Z" fill="#D6C4A7"/>
<path d="M195.244 347.827L151.913 373.802V327.013L195.244 301.038V347.827Z" fill="#BFAF95"/>
<path d="M151.914 275.099L108.549 301.038L151.914 327.013L195.245 301.038L151.914 275.099Z" fill="#5E564A"/>
<path d="M177.385 275.099L195.245 301.038L151.913 327.013L134.02 301.038L177.385 275.099Z" fill="#D1C0A3"/>
<path d="M177.385 275.099L195.245 301.038L151.913 327.013L134.02 301.038L177.385 275.099Z" fill="#D1C0A3"/>
<path d="M166.435 273.402L151.914 275.099L108.549 301.038L123.07 299.376L166.435 273.402Z" fill="#D1C0A3"/>
<path d="M100.971 276.345L108.549 301.038L151.913 327.013L144.302 302.285L100.971 276.345Z" fill="#FDE7C5"/>
<path d="M125.907 314.926V370.927C125.934 372.459 126.387 373.949 127.21 375.221C128.033 376.492 129.192 377.491 130.547 378.096C134.025 379.922 137.867 380.874 141.764 380.874C145.661 380.874 149.504 379.922 152.981 378.096C154.26 377.505 155.364 376.571 156.18 375.39C156.996 374.209 157.493 372.824 157.621 371.378V314.926H125.907Z" fill="#575756"/>
<path d="M152.982 308.207C159.157 311.913 159.157 317.939 152.982 321.645C149.504 323.471 145.662 324.422 141.765 324.422C137.868 324.422 134.025 323.471 130.548 321.645C124.339 317.939 124.339 311.913 130.548 308.207C134.025 306.381 137.868 305.43 141.765 305.43C145.662 305.43 149.504 306.381 152.982 308.207Z" fill="white"/>
<path d="M130.582 307.549V311.29C130.61 312.377 130.94 313.432 131.532 314.329C132.124 315.226 132.954 315.926 133.92 316.346C136.37 317.644 139.081 318.321 141.832 318.321C144.583 318.321 147.294 317.644 149.744 316.346C150.658 315.937 151.45 315.281 152.037 314.446C152.624 313.612 152.985 312.629 153.082 311.601V307.549H130.582Z" fill="#DADADA"/>
<path d="M149.676 302.839C154.049 305.437 154.049 309.766 149.676 312.294C147.226 313.592 144.515 314.269 141.764 314.269C139.013 314.269 136.302 313.592 133.852 312.294C129.479 309.696 129.479 305.367 133.852 302.839C136.302 301.541 139.013 300.864 141.764 300.864C144.515 300.864 147.226 301.541 149.676 302.839Z" fill="white"/>
<path d="M178.185 373.144V404.175L150.311 387.482V356.451L178.185 373.144Z" fill="#E6D7BF"/>
<path d="M221.116 347.446V378.477L178.186 404.175V373.144L221.116 347.446Z" fill="#BFAF95"/>
<path d="M193.142 330.822L150.211 356.555L178.186 373.144L221.083 347.446L193.142 330.822Z" fill="#FDE7C5"/>
<path d="M198.183 345.403V367.187L165.501 347.619V325.835L198.183 345.403Z" fill="#D6C4A7"/>
<path d="M225.09 329.264V351.048L198.183 367.187V345.403L225.09 329.264Z" fill="#BFAF95"/>
<path d="M192.307 309.8L165.4 325.939L198.182 345.403L225.089 329.264L192.307 309.8Z" fill="#FDE7C5"/>
<path d="M225.09 323.203L233.803 384.018L185.665 408.261L195.246 337.437L225.09 323.203Z" fill="#BFAF95"/>
<path d="M213.573 347.446V424.262L198.183 411.101L185.665 408.261L195.246 337.437L213.573 347.446Z" fill="#E6D7BF"/>
<path d="M247.556 332.589L256.503 398.529L230.13 393.057L216.076 394.235L225.089 323.203L247.556 332.589Z" fill="#E6D7BF"/>
<path d="M200.286 340.243L209.499 329.853C211.624 327.432 214.444 325.788 217.542 325.164C220.64 324.54 223.849 324.97 226.692 326.39L236.173 331.065L244.452 337.645L213.639 347.446L200.286 340.243Z" fill="#F9B233"/>
<path d="M247.556 332.589L256.503 398.53L213.572 424.262V347.446L247.556 332.589Z" fill="#BFAF95"/>
<g style="mix-blend-mode:multiply" opacity="0.5">
<path d="M213.573 347.446V424.262L198.183 411.101L204.76 342.632L213.573 347.446Z" fill="#E6D7BF"/>
</g>
<path d="M179.654 299.272V319.601C179.678 320.836 180.043 322.037 180.705 323.063C181.368 324.088 182.301 324.894 183.393 325.385C186.202 326.864 189.307 327.634 192.457 327.634C195.606 327.634 198.712 326.864 201.52 325.385C202.555 324.907 203.447 324.151 204.104 323.195C204.762 322.239 205.16 321.118 205.259 319.948V299.168L179.654 299.272Z" fill="#4995A1"/>
<path d="M201.521 293.869C206.528 296.848 206.528 301.731 201.521 304.71C198.712 306.188 195.607 306.959 192.457 306.959C189.308 306.959 186.202 306.188 183.394 304.71C178.386 301.731 178.386 296.848 183.394 293.869C186.202 292.391 189.308 291.62 192.457 291.62C195.607 291.62 198.712 292.391 201.521 293.869Z" fill="white"/>
<path d="M181.625 293.038V296.501C181.653 297.571 181.985 298.608 182.579 299.483C183.173 300.358 184.002 301.031 184.963 301.419C187.32 302.705 189.935 303.396 192.597 303.439C195.259 303.481 197.893 302.872 200.286 301.662C201.192 301.279 201.981 300.648 202.569 299.837C203.157 299.026 203.522 298.065 203.624 297.056V293.142L181.625 293.038Z" fill="#4995A1"/>
<path d="M200.286 288.432C204.525 290.96 204.525 295.082 200.286 297.61C197.917 298.879 195.29 299.542 192.624 299.542C189.958 299.542 187.331 298.879 184.963 297.61C180.723 295.082 180.723 290.96 184.963 288.432C187.331 287.163 189.958 286.5 192.624 286.5C195.29 286.5 197.917 287.163 200.286 288.432Z" fill="white"/>
<path d="M139.461 250.232L176.55 228.033V176.222L139.461 198.456V250.232Z" fill="#BFAF95"/>
<path d="M89.7549 220.483L139.462 250.232V198.456L89.7549 168.707V220.483Z" fill="#D6C4A7"/>
<path d="M89.7549 168.707L112.556 182.352L114.692 183.633L139.462 198.456L176.551 176.222L151.781 161.399L149.678 160.118L126.877 146.473L89.7549 168.707Z" fill="#BFAF95"/>
<path d="M125.407 203.651L135.388 209.643V201.469L125.407 195.478V203.651Z" fill="white"/>
<path d="M115.793 180.932L139.462 198.456L176.55 176.222L152.882 158.732L115.793 180.932Z" fill="#FDE7C5"/>
<path d="M112.621 179.824L89.9536 168.707L127.042 146.507L149.709 157.59L112.621 179.824Z" fill="#FDE7C5"/>
<path d="M152.147 442.305C152.147 436.452 147.774 434.201 141.331 433.509C135.689 433.509 127.978 436.106 117.963 438.496L106.813 444.937C104.85 450.164 104.558 455.906 105.978 461.319C107.407 462.768 109.151 463.839 111.062 464.442C112.974 465.044 114.997 465.161 116.961 464.782L129.747 459.171L130.648 457.267C140.797 456.262 152.147 451.448 152.147 442.305Z" fill="#1D1D1B"/>
<path d="M75.7333 413.318C75.7333 408.538 71.6272 407.707 65.4513 407.222C54.3347 407.222 53.8339 412.971 43.6187 412.729L33.6038 419.067C31.8535 424.77 31.703 430.872 33.1698 436.66C34.7545 437.9 36.5679 438.789 38.4974 439.271C40.4269 439.754 42.4314 439.82 44.3865 439.465L54.6351 433.266L55.5365 431.327C65.251 429.803 75.7333 422.218 75.7333 413.318Z" fill="#1D1D1B"/>
<path d="M45.6213 219.617C51.8541 221.239 58.3846 221.167 64.5829 219.409H64.7832C71.9272 215.946 54.7683 196.828 58.1066 188.759L56.7379 182.006L52.6985 143.91C39.7459 143.356 34.5047 150.317 33.136 165.486C32.3014 185.365 39.0115 202.266 45.6213 219.617Z" fill="#BFCFAA"/>
<g style="mix-blend-mode:multiply" opacity="0.4">
<path d="M39.1455 173.036C39.1455 173.036 43.3184 204.205 45.6218 219.617C51.8546 221.239 58.3852 221.167 64.5835 219.409L39.1455 173.036Z" fill="#435D2B"/>
</g>
<path d="M54.1007 253.418C52.8321 273.609 47.1904 289.679 45.7549 320.156L41.7823 333.489C30.4988 358.148 29.5975 385.161 32.2347 419.448C38.4774 427.309 56.9716 425.578 58.6074 412.937L64.5496 353.611L68.5222 341.801L90.288 288.571L54.1007 253.418Z" fill="#9BAE84"/>
<path d="M132.985 399.222C132.752 410.547 132.251 422.184 131.65 434.824C132.752 448.297 112.522 454.253 105.244 444.66C101.138 412.59 98.8011 381.802 102.173 354.961C92.1579 333.87 83.545 307.861 82.6103 291.757L73.1295 286.042L68.7229 283.722C63.4594 280.985 59.1909 276.554 56.5554 271.092C53.9199 265.63 53.0589 259.43 54.1011 253.418L57.4394 233.782L114.625 252.933L116.661 265.955L117.262 269.834C123.204 293.107 129.514 316.207 130.615 339.1L132.418 351.533C133.219 368.191 133.319 383.395 132.985 399.222Z" fill="#BFCFAA"/>
<path d="M117.529 188.343L117.128 227.755L116.761 265.851C111.045 267.125 105.103 266.766 99.5688 264.812C81.3416 260.102 57.94 246.249 57.1722 235.859C52.6655 211.132 38.9117 187.374 37.5096 169.607C35.2061 156.862 38.8115 148.239 49.5943 144.637C52.0426 143.837 54.6873 143.985 57.0387 145.052L77.7696 154.057C86.2489 158.802 90.2883 161.607 90.2883 161.607C106.245 171.269 116.828 180.447 117.529 188.343Z" fill="#BFCFAA"/>
<path d="M93.7924 145.191L91.9563 163.443C80.5393 163.443 62.746 155.165 64.9827 148.897L70.9583 136.983L93.7924 145.191Z" fill="#FCAF75"/>
<path d="M99.2344 147.511C94.7277 152.845 87.8842 152.118 80.9405 150.213C70.9255 145.364 63.5145 138.161 64.516 124.446C63.7148 114.506 68.0546 104.082 84.5459 104.636C94.9614 104.982 103.808 108.896 104.576 120.429C104.275 120.429 104.809 142.351 99.2344 147.511Z" fill="#FCAF75"/>
<path d="M104.209 117.589C103.232 121.546 100.846 124.974 97.5325 127.182C97.8796 130.204 97.9912 133.25 97.8664 136.29C97.399 136.29 92.8923 140.481 92.8923 140.481L90.5555 147.407C82.8106 153.226 71.26 148.793 67.7214 143.529C65.6516 140.827 63.4484 129.675 64.0159 119.286C65.251 110.524 71.3268 101.969 84.3462 101.415C97.3656 100.861 105.277 108.549 104.209 117.589Z" fill="#1D1D1B"/>
<path d="M96.4981 137.607C97.7333 136.187 95.8304 132.827 94.4284 132.342C92.4588 131.684 91.4239 134.628 91.0901 136.221C90.9163 137.185 90.9301 138.174 91.1308 139.132C91.3314 140.089 91.7149 140.996 92.2585 141.797C93.5938 143.84 95.5968 141.797 96.2978 140.204C96.9988 138.611 95.6969 138.542 96.4981 137.607Z" fill="#FCAF75"/>
<g style="mix-blend-mode:multiply" opacity="0.4">
<path d="M132.986 399.222C132.185 400.33 129.28 355.412 129.28 355.412L125.708 334.874C119.032 308.692 110.853 284.692 99.5693 264.951C105.104 266.904 111.046 267.263 116.762 265.99L117.363 269.834C123.305 293.107 129.614 316.207 130.716 339.1L132.518 351.533C133.22 368.191 133.32 383.395 132.986 399.222Z" fill="#879A71"/>
</g>
<g style="mix-blend-mode:multiply" opacity="0.4">
<path d="M117.127 227.755L116.76 265.851C111.044 267.125 105.102 266.766 99.5676 264.812C99.5676 264.535 99.2671 264.258 99.1002 263.981C105.41 250.128 91.0883 233.643 93.4251 211.513L113.188 210.924L117.127 227.755Z" fill="#879A71"/>
</g>
<path d="M117.529 188.344L122.303 208.881L126.843 241.262C130.582 243.583 128.245 242.094 140.697 249.643C139.862 251.548 130.014 258.89 114.925 262.527C103.141 248.674 98.8344 234.197 93.0925 213.002C89.7876 190.837 108.182 167.425 117.529 188.344Z" fill="#BFCFAA"/>
</svg>
