<svg width="392" height="337" viewBox="0 0 392 337" fill="none" xmlns="http://www.w3.org/2000/svg">
<path d="M66.9929 281.739C136.581 312.325 249.398 312.325 318.986 281.739C388.574 251.153 388.574 201.566 318.986 170.98C249.398 140.394 136.581 140.394 66.9929 170.98C-2.58714 201.56 -2.58714 251.153 66.9929 281.739Z" fill="#F5F5F5"/>
<path d="M294.573 232.874C298.383 234.768 305.878 234.114 311.311 231.418L342.624 215.788C348.057 213.092 349.358 209.371 345.54 207.471C341.722 205.577 334.219 206.224 328.786 208.92L297.505 224.557C292.072 227.259 290.762 230.98 294.573 232.874Z" fill="#EBEBEB"/>
<path d="M106.083 247.291L74.2371 231.485L106.083 215.68V247.291Z" fill="#EBEBEB"/>
<path d="M196.094 256.747L144.766 231.256L196.102 205.813L196.094 256.747Z" fill="#EBEBEB"/>
<path d="M63.0023 210.335C63.0885 203.932 57.8906 190.614 50.278 182.216C42.6653 173.818 30.5996 167.617 21.9285 170.064C13.8533 172.342 14.5981 181.421 24.2727 187.534C33.9473 193.647 48.5061 201.344 52.6457 211.778L61.4657 224.617L63.0023 210.335Z" fill="#435D2B"/>
<path opacity="0.1" d="M63.0023 210.335C63.0885 203.932 57.8906 190.614 50.278 182.216C42.6653 173.818 30.5996 167.617 21.9285 170.064C13.8533 172.342 14.5981 181.421 24.2727 187.534C33.9473 193.647 48.5061 201.344 52.6457 211.778L61.4657 224.617L63.0023 210.335Z" fill="black"/>
<path d="M63.4335 219.104C63.1983 219.084 62.9944 218.935 62.9474 218.72C58.2669 196.808 37.9456 178.826 25.6839 174.775C25.4016 174.681 25.2605 174.411 25.3703 174.168C25.48 173.926 25.7858 173.804 26.0759 173.899C38.565 178.03 59.2626 196.303 64.0136 218.551C64.0685 218.807 63.8725 219.05 63.5746 219.097C63.5275 219.104 63.4805 219.104 63.4335 219.104Z" fill="white"/>
<path d="M59.4429 233.056C58.2982 229.443 53.2649 223.451 45.0643 218.457C35.9856 212.937 24.4451 210.322 21.8344 206.069C18.6984 200.96 23.7395 196.215 33.124 197.313C42.5085 198.412 58.8784 209.607 61.2931 226.235L59.4429 233.056Z" fill="#435D2B"/>
<path d="M61.3165 229.295C61.1126 229.281 60.9245 229.16 60.8539 228.978C53.3197 210.173 36.7929 203.427 29.1019 202.49C28.804 202.456 28.6001 202.213 28.6393 201.964C28.6785 201.708 28.9451 201.533 29.2509 201.566C37.7494 202.604 54.1821 209.479 61.8809 228.681C61.975 228.924 61.8261 229.194 61.5438 229.275C61.4654 229.295 61.387 229.301 61.3165 229.295Z" fill="white"/>
<path d="M340.985 192.103C340.985 192.103 342.028 178.603 351.287 168.581C360.538 158.558 359.974 154.434 353.592 152.412C347.21 150.39 332.385 162.468 335.685 178.644C338.986 194.82 340.985 192.103 340.985 192.103Z" fill="#435D2B"/>
<path opacity="0.1" d="M340.985 192.103C340.985 192.103 342.028 178.603 351.287 168.581C360.538 158.558 359.974 154.434 353.592 152.412C347.21 150.39 332.385 162.468 335.685 178.644C338.986 194.82 340.985 192.103 340.985 192.103Z" fill="black"/>
<path d="M338.155 184.393C337.967 184.393 337.802 184.265 337.794 184.096C336.712 169.228 348.927 157.029 353.498 154.272C353.662 154.171 353.89 154.204 354.007 154.346C354.125 154.488 354.086 154.683 353.921 154.784C349.437 157.494 337.465 169.457 338.523 184.063C338.539 184.238 338.382 184.386 338.186 184.393C338.171 184.393 338.163 184.393 338.155 184.393Z" fill="white"/>
<path d="M338.468 203.251C338.468 203.251 344.043 204.916 351.216 205.887C358.382 206.864 361.549 203.919 361.549 203.919C361.549 203.919 358.727 198.143 354.658 196.518C354.658 196.518 361.557 197.725 367.1 200.906C367.1 200.906 371.475 200.96 373.215 195.224C373.215 195.224 370.62 191.766 361.926 189.899C361.926 189.899 367.218 188.754 374.846 190.425C375.418 190.621 377.857 183.193 378.594 179.769C379.331 176.345 377.731 176.379 374.627 175.665C371.522 174.95 361.236 172.969 359.292 174.431C357.347 175.901 356.359 180.922 356.359 180.922C356.359 180.922 355.081 177.956 356.069 174.559C356.069 174.559 353.27 173.622 348.935 174.708C345.383 175.597 345.211 177.673 345.376 180.019C345.493 181.731 345.971 183.557 346.912 185.977C346.912 185.977 344.145 182.93 344.058 176.325C344.058 176.325 336.799 179.426 335.56 185.62C334.87 188.969 333.913 198.803 338.468 203.251Z" fill="#435D2B"/>
<path d="M339.833 202.052C339.982 202.052 340.123 201.978 340.193 201.856C345.979 191.524 367.477 179.527 375.183 178.239C375.403 178.206 375.544 178.024 375.505 177.835C375.466 177.646 375.246 177.525 375.034 177.559C367.202 178.866 345.352 191.065 339.48 201.56C339.386 201.735 339.464 201.937 339.668 202.025C339.715 202.038 339.778 202.052 339.833 202.052Z" fill="white"/>
<path d="M60.1956 237.828C59.3097 237.828 58.7766 237.194 58.7766 236.136V122.769L220.273 42.6103V155.526C220.273 157.258 218.854 159.374 217.105 160.237L61.4814 237.484C61.0267 237.713 60.5798 237.828 60.1956 237.828Z" fill="#FAFAFA"/>
<path d="M219.818 43.291V155.525C219.818 157.103 218.47 159.104 216.878 159.9L61.254 237.14C60.8698 237.329 60.5013 237.43 60.1956 237.43C59.3253 237.43 59.2312 236.527 59.2312 236.136V122.998L219.818 43.291ZM220.735 41.9228L58.314 122.54V236.143C58.314 237.464 59.0823 238.225 60.1956 238.225C60.6503 238.225 61.1677 238.097 61.7087 237.828L217.333 160.58C219.206 159.65 220.727 157.386 220.727 155.525L220.735 41.9228Z" fill="#E0E0E0"/>
<path d="M58.314 122.54V141.513L220.735 60.8959V41.9228L58.314 122.54Z" fill="#CCA43B"/>
<path d="M71.054 123.551V126.274C71.054 126.827 71.5087 127.056 72.0732 126.779L122.006 101.996V97.2514L72.0732 122.034C71.5165 122.317 71.054 122.998 71.054 123.551Z" fill="#FAFAFA"/>
<path d="M127.361 94.5959C127.925 94.3195 128.38 94.542 128.38 95.1014V97.8243C128.38 98.3838 127.925 99.0645 127.361 99.3408L122.006 101.996V97.2514L127.361 94.5959Z" fill="#455A64"/>
<path d="M58.314 116.427C58.314 114.567 59.8349 112.302 61.7087 111.372L217.333 34.1246C219.206 33.1945 220.727 33.9494 220.727 35.8096V41.9228L58.314 122.54V116.427Z" fill="#455A64"/>
<path d="M202.68 44.5783C201.802 45.0164 201.088 46.0746 201.088 46.9508C201.088 47.827 201.802 48.1775 202.68 47.7394C203.558 47.3013 204.271 46.2431 204.271 45.3669C204.279 44.4907 203.566 44.1402 202.68 44.5783Z" fill="#CCA43B"/>
<path d="M207.728 42.0711C206.85 42.5092 206.137 43.5673 206.137 44.4435C206.137 45.3197 206.85 45.6702 207.728 45.2321C208.607 44.794 209.32 43.7358 209.32 42.8596C209.32 41.9834 208.607 41.633 207.728 42.0711Z" fill="#CCA43B"/>
<path d="M212.77 39.5638C211.892 40.0019 211.178 41.0601 211.178 41.9363C211.178 42.8125 211.892 43.1629 212.77 42.7248C213.648 42.2867 214.361 41.2286 214.361 40.3524C214.361 39.4762 213.648 39.1257 212.77 39.5638Z" fill="#CCA43B"/>
<g opacity="0.1">
<path opacity="0.1" d="M169.775 73.2435C167.855 74.2006 166.294 76.5192 166.294 78.4266C166.294 80.334 167.855 81.1091 169.775 80.1521C171.696 79.195 173.256 76.8764 173.256 74.969C173.256 73.0616 171.704 72.2932 169.775 73.2435Z" fill="black"/>
<path opacity="0.1" d="M153.86 81.1496C151.939 82.1067 150.379 84.4252 150.379 86.3327C150.379 88.2401 151.939 89.0152 153.86 88.0581C155.781 87.101 157.341 84.7825 157.341 82.8751C157.333 80.9676 155.781 80.1993 153.86 81.1496Z" fill="black"/>
<path opacity="0.1" d="M185.706 65.3443C183.785 66.3014 182.225 68.6199 182.225 70.5273C182.225 72.4348 183.785 73.2099 185.706 72.2528C187.627 71.2957 189.187 68.9771 189.187 67.0697C189.179 65.1623 187.627 64.3872 185.706 65.3443Z" fill="black"/>
<path opacity="0.1" d="M201.629 57.4248C199.708 58.3819 198.148 60.7004 198.148 62.6078C198.148 64.5153 199.708 65.2904 201.629 64.3333C203.55 63.3762 205.11 61.0577 205.11 59.1502C205.11 57.2428 203.55 56.4677 201.629 57.4248Z" fill="black"/>
</g>
<path d="M74.4487 142.989L112.245 124.232C114.119 123.302 115.64 124.056 115.64 125.917V157.116C115.64 158.976 114.119 161.241 112.245 162.171L74.4487 180.929C72.5749 181.859 71.054 181.104 71.054 179.244V148.044C71.054 146.177 72.5749 143.919 74.4487 142.989Z" fill="#E0E0E0"/>
<path d="M128.592 116.117L207.784 76.809C209.657 75.8789 211.178 76.6338 211.178 78.494V109.694C211.178 111.554 209.657 113.818 207.784 114.749L128.592 154.056C126.718 154.986 125.197 154.231 125.197 152.371V121.172C125.197 119.311 126.718 117.047 128.592 116.117Z" fill="#E0E0E0"/>
<path d="M74.4487 190.405L134.534 160.581C136.408 159.65 137.929 160.311 137.929 162.057C137.929 163.802 136.408 165.973 134.534 166.903L74.4487 196.727C72.5749 197.657 71.054 196.997 71.054 195.251C71.054 193.505 72.5749 191.335 74.4487 190.405Z" fill="#E0E0E0"/>
<path d="M74.4487 201.472L134.534 171.648C136.408 170.717 137.929 171.378 137.929 173.124C137.929 174.869 136.408 177.04 134.534 177.97L74.4487 207.794C72.5749 208.724 71.054 208.064 71.054 206.318C71.054 204.572 72.5749 202.402 74.4487 201.472Z" fill="#E0E0E0"/>
<path d="M74.4487 212.532L134.534 182.708C136.408 181.778 137.929 182.438 137.929 184.184C137.929 185.93 136.408 188.1 134.534 189.03L74.4487 218.855C72.5749 219.785 71.054 219.124 71.054 217.378C71.054 215.633 72.5749 213.463 74.4487 212.532Z" fill="#E0E0E0"/>
<path d="M102.9 175.018C102.9 173.899 103.809 172.544 104.938 171.985L209.14 120.262C210.261 119.702 212.088 119.702 213.217 120.262L215.514 121.401C216.635 121.96 217.552 123.315 217.552 124.434V193.101C217.552 194.213 216.635 195.575 215.514 196.134L111.312 247.857C110.191 248.416 108.357 248.416 107.235 247.857L104.938 246.718C103.817 246.165 102.9 244.797 102.9 243.685V175.018Z" fill="#CCA43B"/>
<path opacity="0.4" d="M103.496 173.292L109.274 176.157L216.948 122.709C216.58 122.163 216.07 121.684 215.514 121.401L213.209 120.269C212.088 119.703 210.261 119.703 209.14 120.269L104.938 171.985C104.374 172.268 103.864 172.746 103.496 173.292Z" fill="white"/>
<path opacity="0.1" d="M102.9 175.018V243.685C102.9 244.804 103.817 246.158 104.946 246.718L107.243 247.864C107.416 247.944 107.596 248.019 107.8 248.079C108.059 248.153 108.341 248.214 108.639 248.248C109.172 248.308 109.729 248.288 110.246 248.201C110.379 248.174 110.513 248.14 110.638 248.106C110.724 248.079 110.803 248.059 110.881 248.025C110.505 248.14 110.175 248.126 109.909 248.012C109.525 247.837 109.282 247.439 109.282 246.859V178.185C109.282 177.464 109.705 176.918 110.34 176.696L109.282 176.163L103.504 173.299C103.127 173.838 102.9 174.465 102.9 175.018Z" fill="#CCA43B"/>
<path opacity="0.2" d="M109.282 176.163L157.537 191.665C160.979 192.764 164.844 191.672 166.843 189.03L174.589 178.826L217.333 122.526L176.133 179.21L217.544 193.141C217.536 193.708 217.293 194.334 216.909 194.887L176.024 179.365L167.016 191.753C164.946 194.597 160.759 195.703 157.2 194.348L150.787 191.915L109.909 248.005C109.525 247.83 109.282 247.432 109.282 246.853V245.707L150.591 191.841L109.282 176.163Z" fill="black"/>
<path d="M195.255 97.3324V254.981C195.255 256.841 196.776 257.596 198.65 256.666L281.033 215.774C282.906 214.844 284.427 212.58 284.427 210.719V53.0708C284.427 51.2105 282.906 50.4556 281.033 51.3858L198.65 92.2774C196.776 93.2075 195.255 95.4654 195.255 97.3324Z" fill="#FAFAFA" stroke="#E0E0E0" stroke-width="1.1698" stroke-miterlimit="10"/>
<path d="M200.03 100.264C200.03 99.8261 200.422 99.2802 200.916 99.0376L210.3 94.3802C210.786 94.1376 211.186 94.2993 211.186 94.7307C211.186 95.1688 210.794 95.7147 210.3 95.9574L200.916 100.615C200.43 100.864 200.03 100.702 200.03 100.264Z" fill="#455A64"/>
<path d="M200.03 103.405C200.03 102.967 200.422 102.421 200.916 102.178L210.3 97.5211C210.786 97.2785 211.186 97.4402 211.186 97.8716C211.186 98.3097 210.794 98.8556 210.3 99.0982L200.916 103.756C200.43 103.998 200.03 103.843 200.03 103.405Z" fill="#455A64"/>
<path d="M200.03 106.546C200.03 106.108 200.422 105.562 200.916 105.319L210.3 100.662C210.786 100.419 211.186 100.581 211.186 101.012C211.186 101.45 210.794 101.996 210.3 102.239L200.916 106.896C200.43 107.139 200.03 106.984 200.03 106.546Z" fill="#455A64"/>
<path d="M278.061 66.1194V64.859C278.061 64.7849 277.998 64.7512 277.92 64.7781L276.791 65.2162C276.713 65.2499 276.626 65.2162 276.603 65.1421C276.54 64.9669 276.454 64.8051 276.352 64.6636C276.305 64.5962 276.297 64.4951 276.336 64.4277L277.089 63.1201C277.128 63.0527 277.097 62.9651 277.018 62.9314L276.203 62.527C276.125 62.4865 276.031 62.5068 275.976 62.5742L275.035 63.7874C274.988 63.848 274.878 63.8952 274.792 63.8952C274.596 63.8885 274.392 63.9087 274.18 63.9491C274.094 63.9626 274.024 63.9222 274.008 63.848L273.882 62.7898C273.875 62.7157 273.804 62.682 273.734 62.7224L272.463 63.3493C272.385 63.3897 272.322 63.4773 272.314 63.5515L272.189 64.7647C272.181 64.8388 272.118 64.9399 272.056 64.9938C271.813 65.1893 271.57 65.405 271.35 65.6341C271.295 65.6948 271.186 65.7217 271.099 65.6948L270.284 65.4521C270.198 65.4252 270.096 65.4589 270.057 65.5263L269.124 66.9147C269.077 66.9821 269.1 67.0697 269.163 67.1237L269.814 67.6089C269.876 67.6561 269.908 67.7572 269.876 67.8246C269.759 68.1077 269.657 68.3908 269.586 68.6671C269.57 68.7413 269.492 68.8356 269.422 68.8761L268.261 69.577C268.191 69.6175 268.128 69.7186 268.128 69.7927V71.0531C268.128 71.1272 268.191 71.1609 268.269 71.134L269.398 70.6959C269.476 70.6622 269.563 70.6959 269.586 70.77C269.649 70.9452 269.735 71.107 269.837 71.2485C269.884 71.3159 269.892 71.417 269.853 71.4844L269.1 72.792C269.061 72.8594 269.092 72.947 269.171 72.9807L269.986 73.3851C270.064 73.4256 270.158 73.4053 270.213 73.3379L271.154 72.1247C271.201 72.0641 271.311 72.0169 271.397 72.0169C271.593 72.0236 271.797 72.0034 272.009 71.963C272.095 71.9495 272.166 71.9899 272.181 72.0641L272.307 73.1223C272.314 73.1964 272.385 73.2301 272.463 73.1897L273.734 72.5628C273.812 72.5224 273.875 72.4348 273.882 72.3606L274.008 71.1474C274.016 71.0733 274.078 70.9722 274.141 70.9183C274.384 70.7228 274.627 70.5071 274.847 70.278C274.902 70.2173 275.011 70.1904 275.098 70.2173L275.913 70.46C275.999 70.4869 276.101 70.4532 276.14 70.3858L277.073 68.9974C277.12 68.93 277.097 68.8424 277.034 68.7884L276.383 68.3032C276.321 68.256 276.289 68.1549 276.321 68.0875C276.438 67.8044 276.54 67.5213 276.611 67.245C276.626 67.1708 276.705 67.0765 276.775 67.036L277.936 66.3351C277.998 66.2879 278.061 66.1935 278.061 66.1194ZM273.098 70.0758C271.915 70.6622 270.958 70.1836 270.958 69.0109C270.958 67.8381 271.915 66.4092 273.098 65.8228C274.282 65.2365 275.239 65.7083 275.239 66.8878C275.239 68.0605 274.282 69.4894 273.098 70.0758Z" fill="#37474F"/>
<path d="M239.841 97.1908C249.469 92.4122 257.269 96.2877 257.269 105.838C257.269 115.389 249.469 127.015 239.841 131.787C230.214 136.566 222.413 132.69 222.413 123.14C222.413 113.589 230.214 101.969 239.841 97.1908Z" fill="#455A64"/>
<path d="M239.723 104.713C242.844 103.162 245.376 104.416 245.376 107.516C245.376 110.617 242.844 114.385 239.723 115.935C236.603 117.485 234.071 116.231 234.071 113.131C234.063 110.031 236.595 106.263 239.723 104.713Z" fill="#CCA43B"/>
<path d="M250.864 121.239C250.864 116.144 246.701 114.081 241.574 116.629L238.367 118.22C233.24 120.767 229.077 126.961 229.077 132.05V133.439C230.002 133.701 231.006 133.836 232.072 133.836C234.408 133.843 237.05 133.176 239.841 131.787C244.02 129.711 247.862 126.341 250.864 122.412V121.239Z" fill="#CCA43B"/>
<path d="M224.114 146.009L255.576 130.392C256.517 129.927 257.277 130.257 257.277 131.133C257.277 132.01 256.517 133.088 255.576 133.56L224.114 149.176C223.173 149.642 222.413 149.311 222.413 148.435C222.413 147.559 223.173 146.474 224.114 146.009Z" fill="#CCA43B"/>
<path d="M220.735 157.184L258.947 138.197C259.888 137.732 260.649 138.062 260.649 138.938C260.649 139.815 259.888 140.893 258.947 141.365L220.735 160.351C219.794 160.816 219.034 160.486 219.034 159.61C219.034 158.734 219.794 157.649 220.735 157.184Z" fill="#455A64"/>
<path d="M259.966 153.497L270.668 148.186C271.232 147.909 271.687 148.037 271.687 148.469C271.687 148.907 271.232 149.486 270.668 149.763L259.966 155.074C259.402 155.35 258.947 155.229 258.947 154.791C258.947 154.353 259.41 153.78 259.966 153.497Z" fill="#37474F"/>
<path d="M206.505 176.878L222.217 169.08C223.158 168.615 223.918 168.992 223.918 169.922V179.196C223.918 180.127 223.158 181.259 222.225 181.724L206.513 189.522C205.573 189.987 204.812 189.61 204.812 188.68V179.405C204.812 178.475 205.572 177.343 206.505 176.878Z" fill="#435D2B"/>
<path d="M209.014 178.172L219.716 172.861C220.28 172.584 220.735 172.713 220.735 173.144C220.735 173.582 220.28 174.162 219.716 174.438L209.014 179.749C208.45 180.025 207.995 179.904 207.995 179.466C207.995 179.035 208.45 178.455 209.014 178.172Z" fill="#FAFAFA"/>
<path d="M207.995 182.849V185.572C207.995 186.132 208.45 186.354 209.014 186.078L219.716 180.767C220.28 180.49 220.735 179.81 220.735 179.25V176.527C220.735 175.968 220.28 175.746 219.716 176.022L209.014 181.333C208.45 181.616 207.995 182.297 207.995 182.849Z" fill="#FAFAFA"/>
<path d="M231.985 164.234L247.697 156.435C248.638 155.97 249.398 156.348 249.398 157.278V166.552C249.398 167.482 248.638 168.615 247.697 169.08L231.985 176.878C231.045 177.343 230.284 176.965 230.284 176.035V166.761C230.284 165.831 231.045 164.699 231.985 164.234Z" fill="#435D2B"/>
<path d="M234.494 165.528L245.196 160.217C245.76 159.94 246.215 160.068 246.215 160.5C246.215 160.938 245.76 161.517 245.196 161.794L234.494 167.105C233.93 167.381 233.475 167.26 233.475 166.822C233.475 166.384 233.93 165.811 234.494 165.528Z" fill="#FAFAFA"/>
<path d="M233.475 170.205V172.928C233.475 173.488 233.93 173.71 234.494 173.434L245.196 168.123C245.76 167.846 246.215 167.166 246.215 166.606V163.883C246.215 163.324 245.76 163.101 245.196 163.378L234.494 168.689C233.93 168.972 233.475 169.646 233.475 170.205Z" fill="#FAFAFA"/>
<path d="M257.465 151.589L273.177 143.791C274.118 143.326 274.878 143.704 274.878 144.634V153.908C274.878 154.838 274.118 155.97 273.177 156.435L257.465 164.234C256.525 164.699 255.764 164.321 255.764 163.391V154.117C255.764 153.187 256.525 152.054 257.465 151.589Z" fill="#435D2B"/>
<path d="M259.966 152.883L270.668 147.572C271.233 147.296 271.687 147.417 271.687 147.855C271.687 148.293 271.233 148.873 270.668 149.149L259.966 154.461C259.402 154.737 258.947 154.609 258.947 154.178C258.947 153.746 259.41 153.16 259.966 152.883Z" fill="#FAFAFA"/>
<path d="M258.947 157.561V160.284C258.947 160.843 259.402 161.066 259.966 160.789L270.668 155.478C271.233 155.202 271.687 154.521 271.687 153.962V151.239C271.687 150.679 271.233 150.457 270.668 150.733L259.966 156.044C259.41 156.321 258.947 157.002 258.947 157.561Z" fill="#FAFAFA"/>
<path d="M208.207 198.163L271.476 166.761C273.349 165.831 274.87 166.492 274.87 168.237C274.87 169.983 273.349 172.153 271.476 173.083L208.207 204.485C206.333 205.415 204.812 204.754 204.812 203.009C204.812 201.263 206.333 199.093 208.207 198.163Z" fill="#E0E0E0"/>
<path d="M208.207 210.807L271.476 179.405C273.349 178.475 274.87 179.136 274.87 180.881C274.87 182.627 273.349 184.797 271.476 185.727L208.207 217.129C206.333 218.059 204.812 217.399 204.812 215.653C204.812 213.907 206.333 211.737 208.207 210.807Z" fill="#E0E0E0"/>
<path d="M228.802 217.394L250.88 206.435C251.821 205.97 252.581 206.348 252.581 207.278V213.391C252.581 214.321 251.821 215.453 250.88 215.918L228.795 226.878C227.854 227.343 227.093 226.965 227.093 226.035V219.922C227.101 218.992 227.862 217.86 228.802 217.394Z" fill="#435D2B"/>
<path d="M209.587 199.093C208.709 199.531 207.995 200.589 207.995 201.465C207.995 202.342 208.709 202.692 209.587 202.254C210.465 201.816 211.178 200.758 211.178 199.881C211.178 199.012 210.465 198.655 209.587 199.093Z" fill="#FAFAFA"/>
<path d="M214.636 196.586C213.758 197.024 213.044 198.082 213.044 198.958C213.044 199.834 213.758 200.185 214.636 199.747C215.514 199.309 216.227 198.25 216.227 197.374C216.227 196.505 215.514 196.148 214.636 196.586Z" fill="#FAFAFA"/>
<path d="M219.677 194.078C218.799 194.516 218.085 195.575 218.085 196.451C218.085 197.327 218.799 197.677 219.677 197.239C220.555 196.801 221.268 195.743 221.268 194.867C221.268 193.991 220.555 193.64 219.677 194.078Z" fill="#FAFAFA"/>
<path d="M224.726 191.571C223.847 192.009 223.134 193.067 223.134 193.944C223.134 194.82 223.847 195.17 224.726 194.732C225.604 194.294 226.317 193.236 226.317 192.36C226.317 191.49 225.604 191.133 224.726 191.571Z" fill="#FAFAFA"/>
<path d="M229.767 189.064C228.889 189.502 228.175 190.56 228.175 191.436C228.175 192.312 228.889 192.663 229.767 192.225C230.645 191.787 231.358 190.729 231.358 189.852C231.358 188.983 230.645 188.626 229.767 189.064Z" fill="#FAFAFA"/>
<path d="M234.808 186.556C233.93 186.995 233.216 188.053 233.216 188.929C233.216 189.805 233.93 190.156 234.808 189.718C235.686 189.279 236.399 188.221 236.399 187.345C236.399 186.469 235.694 186.118 234.808 186.556Z" fill="#FAFAFA"/>
<path d="M239.857 184.049C238.979 184.487 238.265 185.545 238.265 186.422C238.265 187.298 238.979 187.648 239.857 187.21C240.735 186.772 241.448 185.714 241.448 184.838C241.448 183.968 240.735 183.611 239.857 184.049Z" fill="#FAFAFA"/>
<path d="M209.587 211.751C208.709 212.189 207.995 213.247 207.995 214.123C207.995 214.999 208.709 215.35 209.587 214.912C210.465 214.474 211.178 213.415 211.178 212.539C211.178 211.663 210.465 211.319 209.587 211.751Z" fill="#FAFAFA"/>
<path d="M214.636 209.243C213.758 209.681 213.044 210.74 213.044 211.616C213.044 212.492 213.758 212.842 214.636 212.404C215.514 211.966 216.227 210.908 216.227 210.032C216.227 209.162 215.514 208.805 214.636 209.243Z" fill="#FAFAFA"/>
<path d="M219.677 206.736C218.799 207.174 218.085 208.232 218.085 209.109C218.085 209.985 218.799 210.335 219.677 209.897C220.555 209.459 221.268 208.401 221.268 207.525C221.268 206.655 220.555 206.298 219.677 206.736Z" fill="#FAFAFA"/>
<path d="M224.726 204.229C223.847 204.667 223.134 205.725 223.134 206.601C223.134 207.477 223.847 207.828 224.726 207.39C225.604 206.952 226.317 205.894 226.317 205.017C226.317 204.141 225.604 203.791 224.726 204.229Z" fill="#FAFAFA"/>
<path d="M229.767 201.721C228.889 202.16 228.175 203.218 228.175 204.094C228.175 204.97 228.889 205.321 229.767 204.883C230.645 204.444 231.358 203.386 231.358 202.51C231.358 201.641 230.645 201.283 229.767 201.721Z" fill="#FAFAFA"/>
<path d="M234.808 199.214C233.93 199.652 233.216 200.71 233.216 201.587C233.216 202.463 233.93 202.813 234.808 202.375C235.686 201.937 236.399 200.879 236.399 200.003C236.399 199.133 235.694 198.776 234.808 199.214Z" fill="#FAFAFA"/>
<path d="M239.857 196.707C238.979 197.145 238.265 198.203 238.265 199.079C238.265 199.956 238.979 200.306 239.857 199.868C240.735 199.43 241.448 198.372 241.448 197.495C241.448 196.626 240.735 196.269 239.857 196.707Z" fill="#FAFAFA"/>
<path d="M310.613 225.204C307.861 225.204 305.258 224.624 302.891 223.451C297.238 220.647 294 214.777 294 207.349C294 194.287 303.659 179.257 315.991 173.137C322.632 169.841 329.225 169.484 334.556 172.133C340.209 174.937 343.447 180.807 343.447 188.235C343.447 201.297 333.788 216.327 321.456 222.447C317.755 224.28 314.07 225.204 310.613 225.204ZM326.81 179.79C324.835 179.79 322.741 180.645 321.456 181.279C312.502 185.721 304.937 197.664 304.937 207.349C304.937 211.272 306.215 214.244 308.355 215.309C310.793 216.523 314.18 215.201 315.983 214.305C324.937 209.863 332.502 197.92 332.502 188.235C332.502 184.312 331.224 181.34 329.084 180.275C328.386 179.924 327.602 179.79 326.81 179.79Z" fill="#455A64"/>
<path d="M334.462 190.324C334.462 182.984 329.084 180.275 329.084 180.275C331.224 181.34 332.502 184.312 332.502 188.235C332.502 197.92 324.937 209.857 315.983 214.305C314.18 215.201 310.793 216.523 308.355 215.309C308.355 215.309 312.894 217.729 319.158 214.79C328.245 210.531 334.462 200.01 334.462 190.324Z" fill="#37474F"/>
<path d="M325.838 98.5995C325.838 95.9169 323.306 93.7399 320.186 93.7399C317.065 93.7399 314.533 95.9169 314.533 98.5995C314.533 98.6062 314.533 98.6062 314.533 98.6129V175.927C314.533 176.649 315.082 177.363 316.187 177.909C318.398 179.008 321.973 179.008 324.184 177.909C325.289 177.363 325.838 176.642 325.838 175.927V98.6129C325.838 98.6129 325.838 98.6062 325.838 98.5995Z" fill="#37474F"/>
<path d="M321.323 115.881C321.323 114.088 319.864 111.911 318.053 111.021C317.136 110.563 316.313 110.536 315.717 110.846V110.839L301.762 117.748L301.425 117.923C301.378 117.943 301.33 117.963 301.291 117.99C301.048 118.132 300.829 118.287 300.625 118.462C299.778 119.183 299.261 120.181 299.261 121.28C299.261 122.789 300.233 124.097 301.668 124.778C302.326 125.081 303.071 125.256 303.879 125.256C304.678 125.256 305.431 125.081 306.082 124.778C306.168 124.737 306.262 124.69 306.348 124.65L320.39 117.694C320.962 117.391 321.323 116.764 321.323 115.881Z" fill="#455A64"/>
<path d="M321.322 135.238C321.322 133.445 319.864 131.268 318.053 130.379C317.136 129.92 316.313 129.893 315.717 130.203V130.197L299.363 138.271L299.025 138.446C298.978 138.467 298.931 138.487 298.892 138.514C298.649 138.655 298.43 138.81 298.226 138.986C297.379 139.707 296.862 140.704 296.862 141.803C296.862 143.313 297.834 144.62 299.268 145.301C299.927 145.604 300.672 145.779 301.479 145.779C302.279 145.779 303.032 145.604 303.682 145.301C303.769 145.26 303.863 145.213 303.949 145.173L320.389 137.058C320.962 136.755 321.322 136.128 321.322 135.238Z" fill="#455A64"/>
</svg>
