<svg width="510" height="368" viewBox="0 0 510 368" fill="none" xmlns="http://www.w3.org/2000/svg">
<g clip-path="url(#clip0)">
<path opacity="0.1" d="M497.641 250.209C497.184 250.522 496.763 250.827 496.316 251.123C494.664 252.221 492.934 253.212 491.139 254.09C481.736 258.749 470.144 261.024 458.854 262.57C433.533 266.039 407.681 266.713 381.939 267.375C312.385 269.169 242.661 270.96 173.276 266.825C145.862 265.193 117.844 262.463 93.0027 254.09C89.4419 252.894 85.9511 251.574 82.5304 250.131C75.6084 247.207 68.9604 243.648 63.4319 239.397C58.2369 235.413 54.0243 230.836 51.5067 225.632C46.2569 214.795 49.0349 202.622 55.0294 192C57.5191 187.702 60.3268 183.574 63.4319 179.647C68.0603 173.666 73.1639 167.856 77.8198 161.88C94.3871 140.635 105.197 113.756 89.9049 91.9662C85.5094 85.7061 79.1585 80.2102 75.5764 73.6753C71.0073 65.3155 71.3592 56.0327 72.8121 47.016C73.001 45.871 73.2005 44.7375 73.4107 43.6154C75.8916 30.245 80.5612 15.8398 94.9582 7.49297C109.913 -1.1802 131.15 -0.742245 149.709 2.34059C178.572 7.18383 205.195 17.2653 232.102 26.3679C259.009 35.4704 287.159 43.7872 316.73 44.6803C342.842 45.4703 373.299 39.5579 390.629 24.191C407.462 9.26625 439.102 8.12843 461.906 17.1451C477.56 23.3322 489.238 34.4786 494.164 47.016C495.161 49.5331 495.879 52.1403 496.307 54.7961C496.701 57.2233 496.83 59.6821 496.69 62.1339C496.622 63.3447 496.489 64.5427 496.307 65.7277C492.496 90.4677 465.068 109.982 448.396 132.082C440.249 142.876 434.497 155.843 440.098 167.483C448.642 185.22 478.355 191.527 496.297 204.726C499.674 207.128 502.647 209.994 505.116 213.227C513.82 224.975 510.608 240.84 497.641 250.209Z" fill="#415C17"/>
<path d="M116.666 138.788C116.666 138.788 112.554 98.7797 87.9356 77.5004C77.6141 68.5696 70.4408 56.8908 67.8775 43.9068C66.6744 37.7528 66.0748 31.508 66.0865 25.2509" stroke="#535461" stroke-width="2" stroke-miterlimit="10"/>
<path d="M50.666 11.7565C52.5485 16.1403 66.4429 25.6507 66.4429 25.6507C66.4429 25.6507 69.4356 9.74278 67.5577 5.35897C66.655 3.25229 64.8986 1.5689 62.6751 0.67914C60.4515 -0.210623 57.9429 -0.233879 55.7011 0.614487C53.4593 1.46285 51.668 3.11335 50.7211 5.20288C49.7743 7.29241 49.7495 9.64982 50.6523 11.7565H50.666Z" fill="#CCA43B"/>
<path d="M47.1067 41.3178C51.2188 44.0357 68.3847 44.9244 68.3847 44.9244C68.3847 44.9244 61.7276 30.0427 57.6155 27.3248C55.6409 26.0152 53.1936 25.4964 50.8119 25.8825C48.4303 26.2686 46.3094 27.528 44.9159 29.3836C43.5223 31.2392 42.9702 33.539 43.3811 35.7771C43.792 38.0152 45.1321 40.0082 47.1067 41.3178Z" fill="#CCA43B"/>
<path d="M65.5245 82.5712C70.5504 82.9705 85.8293 75.5897 85.8293 75.5897C85.8293 75.5897 72.0628 65.9161 67.0506 65.5211C65.8446 65.4004 64.6251 65.5074 63.4637 65.8356C62.3023 66.1639 61.2223 66.7069 60.2873 67.4327C59.3522 68.1585 58.5809 69.0526 58.0185 70.0624C57.4561 71.0721 57.1141 72.1773 57.0124 73.313C56.9108 74.4487 57.0516 75.5921 57.4266 76.6759C57.8015 77.7598 58.4031 78.7624 59.196 79.6248C59.9889 80.4872 60.9572 81.192 62.0439 81.698C63.1307 82.204 64.314 82.5008 65.5245 82.5712Z" fill="#CCA43B"/>
<path d="M86.4917 39.0593C84.4585 43.3787 70.2306 52.4426 70.2306 52.4426C70.2306 52.4426 67.809 36.4531 69.8422 32.1294C70.3131 31.0833 71.0009 30.1358 71.8655 29.3421C72.73 28.5484 73.7541 27.9243 74.878 27.5064C76.0019 27.0884 77.203 26.8849 78.4115 26.9077C79.6199 26.9305 80.8114 27.1791 81.9165 27.6391C83.0216 28.0991 84.0183 28.7612 84.8483 29.5869C85.6783 30.4125 86.3251 31.3852 86.7509 32.4482C87.1768 33.5112 87.3732 34.6432 87.3287 35.7782C87.2842 36.9133 86.9997 38.0287 86.4917 39.0593Z" fill="#CCA43B"/>
<path d="M117.877 139.483C117.877 139.483 96.859 104.482 65.1864 94.4002C51.8951 90.1666 40.2943 82.2062 32.3625 71.3261C28.6074 66.1604 25.365 60.6816 22.6761 54.9587" stroke="#535461" stroke-width="2" stroke-miterlimit="10"/>
<path d="M2.75955 48.4796C6.36909 51.7556 23.174 55.1905 23.174 55.1905C23.174 55.1905 19.0619 39.5101 15.4432 36.2169C13.7037 34.669 11.3852 33.8276 8.99012 33.875C6.59504 33.9225 4.31632 34.8549 2.6478 36.4703C0.979271 38.0857 0.0553568 40.254 0.0762754 42.5051C0.097194 44.7562 1.06126 46.909 2.75955 48.4967V48.4796Z" fill="#CCA43B"/>
<path d="M12.2678 76.8563C17.1978 77.7752 33.2854 72.0517 33.2854 72.0517C33.2854 72.0517 20.7434 60.9913 15.8088 60.0724C13.4636 59.6844 11.0499 60.175 9.08506 61.4393C7.12021 62.7036 5.76053 64.6408 5.29743 66.8359C4.83432 69.0309 5.30464 71.3091 6.60759 73.1822C7.91054 75.0553 9.94244 76.3742 12.2678 76.8563Z" fill="#CCA43B"/>
<path d="M46.8783 107.573C51.6301 106.027 62.413 93.4599 62.413 93.4599C62.413 93.4599 45.6538 89.8575 40.9066 91.4032C39.7417 91.7433 38.6615 92.2997 37.73 93.0396C36.7984 93.7795 36.0345 94.6878 35.4836 95.7104C34.9328 96.7331 34.6061 97.8493 34.5231 98.9928C34.4401 100.136 34.6024 101.284 35.0004 102.367C35.3984 103.451 36.024 104.448 36.84 105.3C37.656 106.152 38.6458 106.841 39.7507 107.327C40.8556 107.812 42.053 108.084 43.2719 108.127C44.4908 108.169 45.7063 107.981 46.8463 107.573H46.8783Z" fill="#CCA43B"/>
<path d="M47.285 59.7976C47.285 64.5207 38.1926 78.2303 38.1926 78.2303C38.1926 78.2303 29.0819 64.5292 29.0774 59.8062C29.0502 58.6666 29.2656 57.5334 29.7109 56.4731C30.1562 55.4128 30.8224 54.4468 31.6705 53.6318C32.5185 52.8168 33.5313 52.1693 34.6493 51.7272C35.7674 51.2851 36.9682 51.0573 38.1812 51.0573C39.3941 51.0573 40.5949 51.2851 41.713 51.7272C42.831 52.1693 43.8438 52.8168 44.6918 53.6318C45.5399 54.4468 46.2061 55.4128 46.6514 56.4731C47.0967 57.5334 47.3121 58.6666 47.285 59.8062V59.7976Z" fill="#CCA43B"/>
<path opacity="0.25" d="M2.75955 48.4796C6.36909 51.7556 23.174 55.1905 23.174 55.1905C23.174 55.1905 19.0619 39.5101 15.4432 36.2169C13.7037 34.669 11.3852 33.8276 8.99012 33.875C6.59504 33.9225 4.31632 34.8549 2.6478 36.4703C0.979271 38.0857 0.0553568 40.254 0.0762754 42.5051C0.097194 44.7562 1.06126 46.909 2.75955 48.4967V48.4796Z" fill="black"/>
<path opacity="0.25" d="M12.2678 76.8563C17.1978 77.7752 33.2854 72.0517 33.2854 72.0517C33.2854 72.0517 20.7434 60.9913 15.8088 60.0724C13.4636 59.6844 11.0499 60.175 9.08506 61.4393C7.12021 62.7036 5.76053 64.6408 5.29743 66.8359C4.83432 69.0309 5.30464 71.3091 6.60759 73.1822C7.91054 75.0553 9.94244 76.3742 12.2678 76.8563Z" fill="black"/>
<path opacity="0.25" d="M46.8783 107.573C51.6301 106.027 62.413 93.4599 62.413 93.4599C62.413 93.4599 45.6538 89.8575 40.9066 91.4032C39.7417 91.7433 38.6615 92.2997 37.73 93.0396C36.7984 93.7795 36.0345 94.6878 35.4836 95.7104C34.9328 96.7331 34.6061 97.8493 34.5231 98.9928C34.4401 100.136 34.6024 101.284 35.0004 102.367C35.3984 103.451 36.024 104.448 36.84 105.3C37.656 106.152 38.6458 106.841 39.7507 107.327C40.8556 107.812 42.053 108.084 43.2719 108.127C44.4908 108.169 45.7063 107.981 46.8463 107.573H46.8783Z" fill="black"/>
<path opacity="0.25" d="M47.285 59.7976C47.285 64.5207 38.1926 78.2303 38.1926 78.2303C38.1926 78.2303 29.0819 64.5292 29.0774 59.8062C29.0502 58.6666 29.2656 57.5334 29.7109 56.4731C30.1562 55.4128 30.8224 54.4468 31.6705 53.6318C32.5185 52.8168 33.5313 52.1693 34.6493 51.7272C35.7674 51.2851 36.9682 51.0573 38.1812 51.0573C39.3941 51.0573 40.5949 51.2851 41.713 51.7272C42.831 52.1693 43.8438 52.8168 44.6918 53.6318C45.5399 54.4468 46.2061 55.4128 46.6514 56.4731C47.0967 57.5334 47.3121 58.6666 47.285 59.8062V59.7976Z" fill="black"/>
<path opacity="0.1" d="M186.49 365.69C214.633 365.69 237.448 362.899 237.448 359.456C237.448 356.012 214.633 353.221 186.49 353.221C158.346 353.221 135.531 356.012 135.531 359.456C135.531 362.899 158.346 365.69 186.49 365.69Z" fill="#1A3103"/>
<path opacity="0.1" d="M83.5585 361.465C92.1078 361.465 99.0384 360.35 99.0384 358.975C99.0384 357.599 92.1078 356.484 83.5585 356.484C75.0092 356.484 68.0786 357.599 68.0786 358.975C68.0786 360.35 75.0092 361.465 83.5585 361.465Z" fill="#CCA43B"/>
<path d="M86.9213 331.246C86.9213 331.246 89.4297 334.333 85.7608 338.975C82.0919 343.616 79.0672 347.562 80.2779 350.469C80.2779 350.469 85.8111 341.817 90.3298 341.697C94.8486 341.577 91.8833 336.45 86.9213 331.246Z" fill="#CCA43B"/>
<path d="M73.662 331.246C73.662 331.246 71.1536 334.333 74.8225 338.975C78.4914 343.616 81.5161 347.562 80.3053 350.469C80.3053 350.469 74.7722 341.817 70.2535 341.697C65.7347 341.577 68.7091 336.45 73.662 331.246Z" fill="#CCA43B"/>
<path d="M69.7965 350.078C69.7965 350.078 76.8145 349.872 78.9346 348.46C81.0546 347.047 89.7266 345.351 90.2521 347.622C90.7775 349.894 100.797 358.91 92.8747 358.97C84.952 359.031 74.4661 357.811 72.3552 356.605C70.2443 355.398 69.7965 350.078 69.7965 350.078Z" fill="#A8A8A8"/>
<path d="M304.161 349.825C304.161 349.825 284.843 348.73 287.123 361.452C287.123 361.452 286.666 363.698 288.836 364.72C288.836 364.72 288.873 363.779 290.819 364.097C291.512 364.207 292.216 364.238 292.916 364.192C293.865 364.133 294.767 363.783 295.484 363.195C295.484 363.195 300.912 361.092 303.023 352.749C303.023 352.749 304.585 350.928 304.526 350.46L301.264 351.749C301.264 351.749 302.379 353.96 301.501 355.797C301.501 355.797 301.396 351.83 300.77 351.933C300.642 351.933 299.075 352.697 299.075 352.697C299.075 352.697 300.994 356.562 299.532 359.344C299.532 359.344 300.08 354.621 298.463 352.977L296.178 354.235C296.178 354.235 298.417 358.21 296.9 361.457C296.9 361.457 297.289 356.48 295.699 354.539L293.62 356.064C293.62 356.064 295.722 359.984 294.438 362.676C294.438 362.676 294.273 356.884 293.167 356.446C293.167 356.446 291.34 357.953 291.07 358.593C291.07 358.593 292.509 361.435 291.619 362.938C291.619 362.938 291.07 359.074 290.618 359.074C290.618 359.074 288.79 361.65 288.617 363.367C288.617 363.367 288.699 360.761 290.179 358.812C289.134 358.999 288.17 359.469 287.406 360.164C287.406 360.164 287.689 358.356 290.604 358.198C290.604 358.198 292.103 356.257 292.505 356.141C292.505 356.141 289.581 355.909 287.808 356.648C287.808 356.648 289.366 354.93 293.039 355.716L295.091 354.144C295.091 354.144 291.244 353.646 289.608 354.196C289.608 354.196 291.491 352.685 295.644 353.767L297.883 352.513C297.883 352.513 294.598 351.847 292.642 352.083C292.642 352.083 294.707 351.036 298.536 352.169L300.135 351.495C300.135 351.495 297.727 351.066 297.024 350.984C296.32 350.903 296.283 350.731 296.283 350.731C297.807 350.492 299.372 350.656 300.802 351.203C300.802 351.203 304.22 350.027 304.161 349.825Z" fill="#CCA43B"/>
<path opacity="0.1" d="M290.856 368C298.406 368 304.526 367.027 304.526 365.827C304.526 364.627 298.406 363.655 290.856 363.655C283.305 363.655 277.185 364.627 277.185 365.827C277.185 367.027 283.305 368 290.856 368Z" fill="#CCA43B"/>
<path d="M270.318 350.503C270.318 350.503 259.425 349.885 260.723 357.06C260.657 357.424 260.716 357.797 260.889 358.128C261.063 358.459 261.344 358.73 261.691 358.902C261.691 358.902 261.691 358.369 262.811 358.55C263.2 358.609 263.596 358.628 263.99 358.605C264.524 358.569 265.032 358.372 265.438 358.043C265.438 358.043 268.499 356.854 269.692 352.152C269.692 352.152 270.569 351.126 270.537 350.864L268.709 351.598C268.709 351.598 269.335 352.848 268.842 353.882C268.842 353.882 268.782 351.645 268.431 351.697C268.358 351.697 267.476 352.126 267.476 352.126C267.476 352.126 268.554 354.273 267.741 355.875C267.741 355.875 268.047 353.2 267.138 352.281L265.845 352.994C265.845 352.994 267.106 355.235 266.251 357.064C266.251 357.064 266.471 354.256 265.57 353.165L264.401 354.024C264.401 354.024 265.584 356.235 264.858 357.751C264.858 357.751 264.762 354.484 264.14 354.239C263.695 354.591 263.298 354.994 262.957 355.437C262.957 355.437 263.77 357.043 263.268 357.888C263.268 357.888 262.957 355.712 262.706 355.703C262.706 355.703 261.682 357.146 261.577 358.133C261.623 357.217 261.926 356.328 262.454 355.557C261.866 355.662 261.323 355.926 260.892 356.317C260.892 356.317 261.052 355.295 262.719 355.209C262.719 355.209 263.56 354.114 263.789 354.05C263.789 354.05 262.139 353.917 261.138 354.333C261.138 354.333 262.02 353.372 264.09 353.809L265.246 352.921C265.246 352.921 263.076 352.642 262.157 352.951C262.157 352.951 263.217 352.092 265.561 352.719L266.818 352.015C265.849 351.813 264.857 351.732 263.866 351.774C263.866 351.774 265.031 351.186 267.188 351.822L268.102 351.444C268.102 351.444 266.731 351.19 266.352 351.152C265.972 351.113 265.931 351.01 265.931 351.01C266.791 350.876 267.674 350.968 268.481 351.276C268.481 351.276 270.35 350.619 270.318 350.503Z" fill="#CCA43B"/>
<path opacity="0.1" d="M262.815 360.752C267.072 360.752 270.523 360.204 270.523 359.529C270.523 358.853 267.072 358.305 262.815 358.305C258.558 358.305 255.107 358.853 255.107 359.529C255.107 360.204 258.558 360.752 262.815 360.752Z" fill="#CCA43B"/>
<path d="M291.047 335.3C291.047 335.3 277.902 334.552 279.451 343.213C279.372 343.652 279.442 344.104 279.652 344.503C279.862 344.903 280.201 345.229 280.621 345.437C280.621 345.437 280.621 344.797 281.969 345.007C282.44 345.078 282.918 345.1 283.394 345.072C284.04 345.028 284.654 344.791 285.144 344.393C285.144 344.393 288.84 342.959 290.275 337.279C290.275 337.279 291.34 336.042 291.299 335.725L289.078 336.613C289.078 336.613 289.836 338.12 289.242 339.37C289.242 339.37 289.169 336.669 288.74 336.734C288.658 336.734 287.589 337.253 287.589 337.253C287.589 337.253 288.895 339.877 287.908 341.779C287.908 341.779 288.283 338.55 287.182 337.442L285.619 338.301C285.619 338.301 287.145 341.006 286.113 343.217C286.113 343.217 286.378 339.829 285.29 338.494L283.874 339.529C283.874 339.529 285.309 342.195 284.436 344.029C284.436 344.029 284.322 340.087 283.568 339.786C283.568 339.786 282.33 340.813 282.142 341.233C282.142 341.233 283.125 343.17 282.512 344.192C282.512 344.192 282.142 341.568 281.836 341.555C281.836 341.555 280.602 343.273 280.465 344.488C280.524 343.385 280.89 342.316 281.525 341.388C280.815 341.515 280.159 341.834 279.638 342.307C279.638 342.307 279.83 341.075 281.832 340.967C281.832 340.967 282.85 339.649 283.125 339.567C283.125 339.567 281.132 339.413 279.926 339.915C279.926 339.915 280.986 338.752 283.49 339.28L284.888 338.211C284.888 338.211 282.266 337.871 281.155 338.245C281.155 338.245 282.435 337.219 285.267 337.966L286.789 337.107C286.789 337.107 284.555 336.678 283.225 336.819C283.225 336.819 284.628 336.107 287.237 336.875L288.324 336.42C288.324 336.42 286.684 336.115 286.204 336.068C285.724 336.021 285.702 335.896 285.702 335.896C286.738 335.734 287.803 335.846 288.776 336.218C288.776 336.218 291.093 335.437 291.047 335.3Z" fill="#CCA43B"/>
<path opacity="0.1" d="M281.996 347.67C287.136 347.67 291.303 347.008 291.303 346.192C291.303 345.377 287.136 344.715 281.996 344.715C276.856 344.715 272.689 345.377 272.689 346.192C272.689 347.008 276.856 347.67 281.996 347.67Z" fill="#CCA43B"/>
<path d="M353.666 19.0007C353.666 19.0007 336.076 18.0972 338.152 28.5963C338.152 28.5963 337.736 30.4495 339.712 31.2929C339.712 31.2929 339.745 30.5169 341.517 30.7791C342.148 30.8695 342.789 30.8957 343.427 30.857C344.291 30.8085 345.113 30.5197 345.765 30.0349C345.765 30.0349 350.708 28.2987 352.63 21.4138C352.63 21.4138 354.053 19.9114 353.999 19.5252L351.028 20.5882C351.028 20.5882 352.043 22.4131 351.244 23.9296C351.244 23.9296 351.149 20.6555 350.579 20.7406C350.462 20.7406 349.035 21.3713 349.035 21.3713C349.035 21.3713 350.783 24.5604 349.451 26.8565C349.451 26.8565 349.951 22.9587 348.478 21.6016L346.398 22.6398C346.398 22.6398 348.436 25.921 347.055 28.5999C347.055 28.5999 347.409 24.493 345.961 22.8914L344.068 24.1493C344.068 24.1493 345.982 27.3845 344.812 29.6062C344.812 29.6062 344.663 24.8261 343.656 24.4647C343.656 24.4647 341.992 25.7084 341.746 26.2364C341.746 26.2364 343.057 28.5821 342.246 29.8223C342.246 29.8223 341.746 26.6333 341.334 26.6333C341.334 26.6333 339.67 28.7593 339.512 30.1767C339.512 30.1767 339.587 28.0258 340.935 26.4171C339.983 26.5715 339.106 26.9595 338.41 27.5333C338.41 27.5333 338.668 26.0415 341.322 25.9104C341.322 25.9104 342.687 24.3088 343.053 24.2131C343.053 24.2131 340.39 24.0218 338.776 24.6312C338.776 24.6312 340.194 23.2139 343.539 23.8623L345.407 22.5654C345.407 22.5654 341.904 22.1544 340.415 22.6079C340.415 22.6079 342.129 21.3607 345.911 22.2536L347.949 21.2189C347.949 21.2189 344.958 20.6697 343.177 20.8646C343.177 20.8646 345.058 20 348.544 20.9354L350 20.3791C350 20.3791 347.808 20.0248 347.167 19.9575C346.527 19.8901 346.493 19.7484 346.493 19.7484C347.881 19.5514 349.305 19.6863 350.608 20.1382C350.608 20.1382 353.72 19.1673 353.666 19.0007Z" fill="#CCA43B"/>
<path d="M322.85 19.5606C322.85 19.5606 312.932 19.0503 314.113 24.9714C314.053 25.2716 314.107 25.5802 314.265 25.8532C314.423 26.1261 314.679 26.3495 314.995 26.4915C314.995 26.4915 314.995 26.0521 316.014 26.201C316.369 26.2501 316.729 26.2655 317.088 26.247C317.574 26.2167 318.037 26.054 318.407 25.7828C318.407 25.7828 321.194 24.8013 322.28 20.9212C322.28 20.9212 323.079 20.0744 323.05 19.8582L321.385 20.4641C321.385 20.4641 321.955 21.4953 321.506 22.3492C321.506 22.3492 321.452 20.5031 321.132 20.5456C321.065 20.5456 320.262 20.9 320.262 20.9C320.262 20.9 321.244 22.6717 320.503 23.9934C320.503 23.9934 320.782 21.7858 319.954 21.0275L318.777 21.6158C318.777 21.6158 319.925 23.4654 319.147 24.9749C319.147 24.9749 319.347 22.6575 318.527 21.7575L317.462 22.4662C317.462 22.4662 318.54 24.291 317.878 25.5419C317.878 25.5419 317.791 22.8453 317.225 22.6433C316.82 22.9343 316.458 23.2663 316.148 23.632C316.148 23.632 316.888 24.9572 316.43 25.6553C316.43 25.6553 316.148 23.8588 315.919 23.8517C315.919 23.8517 314.987 25.0422 314.891 25.8572C314.933 25.1011 315.209 24.3677 315.69 23.7312C315.154 23.8175 314.659 24.0356 314.267 24.3584C314.267 24.3584 314.413 23.515 315.931 23.4442C315.931 23.4442 316.697 22.5406 316.905 22.4874C316.905 22.4874 315.403 22.3776 314.492 22.7213C314.492 22.7213 315.295 21.9276 317.179 22.289L318.232 21.5555C318.232 21.5555 316.256 21.3252 315.419 21.5803C315.419 21.5803 316.385 20.8716 318.519 21.389L319.663 20.8079C318.781 20.6414 317.878 20.5747 316.975 20.6094C316.975 20.6094 318.036 20.124 320 20.6484L320.832 20.3366C320.832 20.3366 319.584 20.1275 319.239 20.0956C318.893 20.0637 318.856 19.9787 318.856 19.9787C319.639 19.8678 320.442 19.9438 321.177 20.1984C321.177 20.1984 322.879 19.6562 322.85 19.5606Z" fill="#CCA43B"/>
<path d="M341.725 7.01335C341.725 7.01335 329.756 6.39679 331.166 13.5438C331.094 13.9064 331.158 14.2791 331.349 14.6088C331.54 14.9384 331.849 15.2081 332.231 15.3793C332.231 15.3793 332.231 14.8514 333.459 15.025C333.888 15.0833 334.323 15.1012 334.757 15.0781C335.345 15.0423 335.903 14.8459 336.35 14.5183C336.35 14.5183 339.716 13.3348 341.022 8.64685C341.022 8.64685 341.991 7.62635 341.954 7.36414L339.932 8.09763C339.932 8.09763 340.623 9.34136 340.082 10.3725C340.082 10.3725 340.015 8.14368 339.624 8.19683C339.549 8.19683 338.576 8.62559 338.576 8.62559C338.576 8.62559 339.766 10.7906 338.867 12.3603C338.867 12.3603 339.208 9.6957 338.205 8.7815L336.783 9.49019C336.783 9.49019 338.172 11.7225 337.232 13.5474C337.232 13.5474 337.473 10.7516 336.483 9.64964L335.193 10.5036C335.193 10.5036 336.5 12.7041 335.705 14.2171C335.705 14.2171 335.601 10.9642 334.915 10.7162C334.915 10.7162 333.787 11.5631 333.617 11.9103C333.617 11.9103 334.511 13.5084 333.954 14.3517C333.954 14.3517 333.617 12.1867 333.338 12.1761C333.338 12.1761 332.215 13.5935 332.09 14.5962C332.143 13.6863 332.476 12.8042 333.055 12.0379C332.408 12.1427 331.811 12.4063 331.337 12.7962C331.337 12.7962 331.511 11.7792 333.334 11.6906C333.334 11.6906 334.261 10.6028 334.511 10.5355C334.511 10.5355 332.697 10.4079 331.599 10.8225C331.599 10.8225 332.564 9.86225 334.844 10.2981L336.117 9.41577C336.117 9.41577 333.729 9.13584 332.718 9.44412C332.718 9.44412 333.883 8.59726 336.462 9.21381L337.848 8.50513C337.848 8.50513 335.813 8.15077 334.603 8.26771C334.603 8.26771 335.88 7.6795 338.255 8.31377L339.246 7.93817C339.246 7.93817 337.752 7.68659 337.315 7.64761C336.878 7.60863 336.858 7.50589 336.858 7.50589C337.802 7.37207 338.771 7.46407 339.657 7.77164C339.657 7.77164 341.767 7.12674 341.725 7.01335Z" fill="#CCA43B"/>
<path d="M496.316 251.123V47.0326H63.4319V239.431C68.9604 243.665 75.6084 247.224 82.5304 250.165C85.9481 251.596 89.4388 252.916 93.0027 254.124H491.139L496.316 251.123Z" fill="white"/>
<path d="M496.316 41.6183H63.4365V52.4125H496.316V41.6183Z" fill="#5A5773"/>
<path d="M72.0811 49.8063C73.7213 49.8063 75.051 48.5568 75.051 47.0154C75.051 45.4741 73.7213 44.2246 72.0811 44.2246C70.4409 44.2246 69.1112 45.4741 69.1112 47.0154C69.1112 48.5568 70.4409 49.8063 72.0811 49.8063Z" fill="white"/>
<path d="M80.0769 49.8063C81.7171 49.8063 83.0467 48.5568 83.0467 47.0154C83.0467 45.4741 81.7171 44.2246 80.0769 44.2246C78.4366 44.2246 77.107 45.4741 77.107 47.0154C77.107 48.5568 78.4366 49.8063 80.0769 49.8063Z" fill="white"/>
<path d="M88.0727 49.8063C89.7129 49.8063 91.0426 48.5568 91.0426 47.0154C91.0426 45.4741 89.7129 44.2246 88.0727 44.2246C86.4325 44.2246 85.1028 45.4741 85.1028 47.0154C85.1028 48.5568 86.4325 49.8063 88.0727 49.8063Z" fill="white"/>
<path opacity="0.2" d="M146.556 76.1349H75.0509V118.359H146.556V76.1349Z" fill="#5A5773"/>
<path d="M245.563 76.1349H174.057V118.359H245.563V76.1349Z" fill="#899878"/>
<path opacity="0.2" d="M344.569 76.1349H273.064V118.359H344.569V76.1349Z" fill="#5A5773"/>
<path opacity="0.2" d="M146.556 136.499H75.0509V178.723H146.556V136.499Z" fill="#5A5773"/>
<path opacity="0.2" d="M245.563 136.499H174.057V178.723H245.563V136.499Z" fill="#5A5773"/>
<path opacity="0.2" d="M344.569 136.499H273.064V178.723H344.569V136.499Z" fill="#5A5773"/>
<path opacity="0.2" d="M146.556 196.859H75.0509V239.083H146.556V196.859Z" fill="#5A5773"/>
<path opacity="0.2" d="M245.563 196.859H174.057V239.083H245.563V196.859Z" fill="#5A5773"/>
<path opacity="0.2" d="M344.569 196.859H273.064V239.083H344.569V196.859Z" fill="#5A5773"/>
<path d="M228.04 113.12L223.106 114.761L221.315 111.97C219.944 109.823 218.043 106.886 216.641 104.752C214.164 100.999 217.404 95.2803 217.404 95.2803C217.404 95.2803 217.989 89.5397 220.072 87.7707C222.156 86.0018 222.736 95.2803 222.736 95.2803C231.102 98.8526 226.62 107.255 226.62 107.255L227.433 110.587L228.04 113.12Z" fill="#EFB7B9"/>
<path d="M220.072 131.927L222.544 129.96L221.306 112.262C221.306 112.262 227.702 108.148 232.436 114.585C232.436 114.585 232.244 118.518 232.436 119.591C232.628 120.664 231.106 121.738 232.436 122.807C233.765 123.876 232.436 127.457 232.436 127.457C232.436 127.457 233.939 129.96 234.889 130.673C235.84 131.386 236.795 137.289 234.889 138.539C232.984 139.788 229.411 142.652 229.411 143.902C229.411 145.151 224.842 148.195 224.842 148.195L220.831 143.21L220.072 131.927Z" fill="#941C2F"/>
<path d="M166.614 239.362C157.394 235.687 159.441 226.709 161.177 222.188C161.524 221.272 161.932 220.377 162.397 219.509L167.569 216.559C167.569 216.559 168.625 219.088 169.753 222.48C172.371 230.371 175.382 242.862 166.614 239.362Z" fill="#EFB7B9"/>
<path d="M179.289 321.281C178.665 322.424 178.204 323.64 177.918 324.896C177.462 326.918 177.262 328.983 177.324 331.049C177.361 332.479 177.489 333.415 177.489 333.415L167.218 340.053C167.218 340.053 167.277 339.275 167.377 338.133C167.642 335.093 168.195 329.452 168.716 328.722C169.077 328.215 169.328 326.18 169.488 324.291C169.648 322.401 169.712 320.744 169.712 320.744C169.712 320.744 182.071 316.39 179.289 321.281Z" fill="#EFB7B9"/>
<path d="M203.546 326.042C203.546 326.042 203.546 327.889 203.473 330.036C203.4 332.182 203.263 334.716 202.975 335.896C202.71 336.978 202.691 338.966 202.742 340.8C202.81 342.947 202.975 344.879 202.975 344.879C202.975 344.879 192.489 335.561 193.558 334.823C193.846 334.625 194.129 333.831 194.39 332.775C194.709 331.487 194.997 329.769 195.212 328.309C195.468 326.571 195.628 325.171 195.628 325.171L203.546 326.042Z" fill="#EFB7B9"/>
<path opacity="0.1" d="M179.289 321.281C178.665 322.424 178.204 323.64 177.918 324.896C175.107 324.827 172.301 324.625 169.511 324.291C169.667 322.444 169.735 320.744 169.735 320.744C169.735 320.744 182.071 316.39 179.289 321.281Z" fill="black"/>
<path opacity="0.1" d="M203.546 326.042C203.546 326.042 203.546 327.889 203.473 330.036C200.201 330.821 196.838 329.25 195.212 328.318C195.468 326.579 195.628 325.179 195.628 325.179L203.546 326.042Z" fill="black"/>
<path d="M225.016 234.717C220.831 243.304 219.117 253.488 219.117 253.488L217.596 262.076C217.596 262.076 218.359 265.828 217.596 267.258C216.833 268.688 215.311 271.015 215.311 271.015C215.311 271.015 216.453 279.774 215.311 280.667C214.169 281.56 215.311 286.923 215.311 286.923L211.505 304.956L206.178 328.194C201.042 332.131 194.207 327.124 194.207 327.124L195.715 311.929C195.715 311.929 197.999 285.309 197.049 284.218C196.098 283.127 197.428 279.748 197.428 279.748C197.428 279.748 198.762 276.528 197.812 275.279C196.861 274.029 197.999 271.346 197.999 271.346C197.999 271.346 197.62 260.44 198.762 257.937C199.904 255.433 198.762 239.951 198.762 239.951L198.305 235.129L198.04 232.458L198.017 232.196C198.017 232.196 197.844 233.265 197.56 234.923C196.72 239.968 194.929 250.423 194.221 252.574C193.739 254.124 193.085 255.622 192.27 257.044C192.27 257.044 193.256 262.406 192.27 263.836C191.283 265.266 192.119 266.876 192.119 266.876C192.119 266.876 193.069 271.346 190.213 273.132C187.358 274.918 190.213 275.815 190.213 275.815C190.213 275.815 188.121 280.109 187.362 281.891C186.604 283.673 187.362 286.185 187.362 286.185L185.841 300.663C185.841 300.663 184.507 306.738 184.699 310.852C184.891 314.965 182.985 324.437 182.985 324.437C182.985 324.437 168.337 324.437 166.08 322.827C163.823 321.216 169.849 305.51 169.849 305.51C169.849 305.51 171.563 277.979 171.179 277.267C170.795 276.554 171.179 271.187 172.513 270.118C173.847 269.049 172.513 266.897 172.513 266.897C172.513 266.897 172.134 262.604 172.513 261.535C172.892 260.466 172.454 256.885 172.454 256.885C172.454 256.885 171.179 248.126 170.992 243.119C170.804 238.113 169.849 226.855 169.849 226.855C169.849 226.855 170.845 219.891 170.996 216.576C171.051 215.357 171.631 213.832 172.367 212.398C173.19 210.779 174.137 209.218 175.2 207.727C175.2 207.727 220.273 195.206 222.165 196.452C222.667 196.782 223.398 199.028 224.12 202.278C226.131 211.359 228.095 228.405 225.016 234.717Z" fill="#444053"/>
<path d="M188.112 132.82C188.112 132.82 175.954 134.623 173.084 136.392C170.215 138.161 164.531 141.579 164.531 148.908C164.531 156.237 163.201 163.747 162.438 165.889C161.675 168.032 174.423 185.374 174.423 185.374L169.854 211.655C169.854 211.655 188.13 211.119 194.216 211.655C200.302 212.192 221.598 202.716 221.598 202.716C221.598 202.716 234.154 196.46 236.818 196.276C239.481 196.091 231.49 182.51 231.49 182.51C231.49 182.51 219.122 160.527 221.214 156.95C223.307 153.373 224.842 148.191 224.842 148.191L222.558 129.96C222.558 129.96 219.135 128.887 216.28 130.853C213.424 132.82 203.724 131.746 203.724 131.746L188.112 132.82Z" fill="#941C2F"/>
<path d="M167.186 164.64L162.429 165.889L161.1 182.712C161.1 182.712 162.813 187.182 161.1 188.611C159.386 190.041 159.007 220.612 159.007 220.612C159.007 220.612 164.531 224.36 170.992 221.488C170.992 221.488 170.041 218.092 172.892 205.756C175.743 193.42 175.748 187.164 175.748 187.164C175.748 187.164 175.748 171.789 177.077 169.286C178.407 166.782 177.077 160.527 177.077 160.527C177.077 160.527 174.414 157.13 174.606 155.881C174.798 154.631 167.186 164.64 167.186 164.64Z" fill="#941C2F"/>
<path opacity="0.1" d="M215.887 167.319C215.887 167.319 213.415 187.34 206.182 191.097C206.182 191.097 222.352 186.808 215.887 167.319Z" fill="black"/>
<path opacity="0.1" d="M179.554 169.11C179.554 169.11 188.491 173.219 186.407 176.078C184.324 178.938 179.554 169.11 179.554 169.11Z" fill="black"/>
<path opacity="0.1" d="M179.554 177.332C179.554 177.332 185.261 182.875 184.123 184.842C182.985 186.808 179.554 177.332 179.554 177.332Z" fill="black"/>
<path opacity="0.1" d="M225.587 131.39C225.587 131.39 227.826 134.962 228.04 137.289C228.255 139.617 225.587 131.39 225.587 131.39Z" fill="black"/>
<path opacity="0.1" d="M225.587 126.564C225.587 126.564 226.711 125.667 229.58 126.564C232.45 127.461 225.587 126.564 225.587 126.564Z" fill="black"/>
<path opacity="0.1" d="M214.603 231.05C209.89 231.678 205.083 231.1 200.69 229.375L198.292 235.146L198.026 232.475C198.419 230.234 199.182 227.834 200.69 227.228C200.69 227.228 205.972 231.183 214.603 231.05Z" fill="black"/>
<path opacity="0.1" d="M175.579 238.559C175.579 238.559 187.28 240.839 190.561 240.436L175.579 238.559Z" fill="black"/>
<path opacity="0.1" d="M176.794 241.44C176.794 241.44 181.788 241.239 184.283 242.179L176.794 241.44Z" fill="black"/>
<path opacity="0.1" d="M177.365 243.385C179.644 243.84 181.957 244.127 184.283 244.244L177.365 243.385Z" fill="black"/>
<path opacity="0.1" d="M177.077 267.988C177.292 267.855 187.065 265.708 188.281 267.25L177.077 267.988Z" fill="black"/>
<path opacity="0.1" d="M177.077 270.805C177.077 270.805 185.567 269.864 185.781 270.805C185.996 271.745 177.077 270.805 177.077 270.805Z" fill="black"/>
<path opacity="0.1" d="M177.077 273.351C177.077 273.351 186.138 271.59 187.207 272.02C188.276 272.449 177.077 273.351 177.077 273.351Z" fill="black"/>
<path opacity="0.1" d="M177.507 333.419L167.236 340.057C167.236 340.057 167.295 339.28 167.396 338.138C169.68 332.856 172.655 330.07 172.655 330.07C174.971 329.503 176.433 330.027 177.342 331.053C177.379 332.479 177.507 333.419 177.507 333.419Z" fill="black"/>
<path d="M178.508 339.383C177.056 342.495 176.326 345.861 176.365 349.258C176.423 352.044 175.671 354.792 174.19 357.206C173.976 357.546 173.734 357.87 173.468 358.176C173.468 358.176 166.331 358.12 163.832 356.175C163.551 355.966 163.322 355.703 163.16 355.402C161.73 352.723 165.943 342.466 165.943 342.466C168.154 334.557 172.646 330.332 172.646 330.332C180.646 328.387 178.508 339.383 178.508 339.383Z" fill="#444053"/>
<path opacity="0.1" d="M174.19 357.184C173.976 357.524 173.734 357.849 173.468 358.155C173.468 358.155 166.331 358.099 163.832 356.154C165.061 352.332 168.981 340.77 170.818 342.736C172.545 344.582 173.747 353.466 174.19 357.184Z" fill="black"/>
<path d="M173.212 343.453L172.714 360.774H175.108C175.108 360.774 175.497 345.578 176.566 343.453C177.635 341.328 173.212 343.453 173.212 343.453Z" fill="#444053"/>
<path opacity="0.1" d="M202.975 344.879C202.975 344.879 192.489 335.562 193.558 334.823C193.846 334.626 194.129 333.831 194.39 332.775C196.404 332.444 199.872 333.234 202.742 340.8C202.81 342.947 202.975 344.879 202.975 344.879Z" fill="black"/>
<path d="M204.542 355.269C204.462 355.302 204.377 355.325 204.291 355.338C203.057 355.54 198.511 355.424 195.966 355.338C195.5 355.324 195.057 355.14 194.733 354.825C194.408 354.51 194.226 354.089 194.225 353.651C194.225 353.007 194.225 352.221 194.17 351.384C194.051 348.739 193.713 345.591 192.704 344.883C190.917 343.595 189.505 339.224 192.704 333.689C192.704 333.689 198.835 329.288 203.258 342.517C203.258 342.517 203.688 346.291 205.611 347.631C207.535 348.971 205.401 354.887 204.542 355.269Z" fill="#444053"/>
<path opacity="0.1" d="M204.281 355.338C203.048 355.54 198.502 355.424 195.957 355.338C195.49 355.324 195.048 355.14 194.724 354.825C194.399 354.51 194.217 354.089 194.216 353.651C194.216 353.007 194.216 352.221 194.161 351.384C194.933 348.18 196.044 344.883 197.474 344.132C197.483 344.127 201.81 343.668 204.281 355.338Z" fill="black"/>
<path d="M193.48 343.741L194.632 358.155H196.094V342.513L193.48 343.741Z" fill="#444053"/>
<path opacity="0.1" d="M197.053 93.4641C192.909 93.7541 188.896 94.9652 185.347 96.9978C184.434 97.5173 183.52 98.1485 183.141 99.0802C182.812 99.8874 182.949 100.798 182.962 101.656C183.086 109.05 174.313 114.645 174.587 122.034C174.697 124.967 176.264 127.697 176.552 130.621C177.032 135.499 173.961 139.986 171.019 144.026C174.05 144.2 177.036 143.269 179.357 141.428C182.462 151.154 182.863 161.464 180.523 171.377H184.731C185.146 171.348 185.564 171.396 185.96 171.518C186.329 171.683 186.66 171.915 186.933 172.201C190.867 175.881 193.503 181.321 192 186.344L200.955 183.188C203.098 182.433 205.273 181.664 207.137 180.419C209.001 179.174 210.564 177.366 210.957 175.245C211.199 173.957 211.121 172.42 212.25 171.673C212.806 171.395 213.399 171.189 214.014 171.059C216.472 170.243 217.559 167.573 218.062 165.168C218.674 162.218 218.866 159.205 218.633 156.207C218.235 151.184 216.654 146.083 217.957 141.179C218.692 138.427 220.328 135.864 220.46 133.022C220.675 128.337 216.778 124.301 216.198 119.642C215.791 116.396 217.038 113.112 216.632 109.866C216.406 108.19 215.753 106.591 214.73 105.203C213.706 103.815 212.341 102.679 210.751 101.893C209.65 101.36 208.467 101.004 207.379 100.416C204.898 99.063 203.313 96.6285 201.06 94.954C198.808 93.2795 195.057 92.6483 193.361 94.8252L197.053 93.4641Z" fill="black"/>
<path d="M197.053 92.9274C192.909 93.2173 188.896 94.4285 185.347 96.4611C184.434 96.9806 183.52 97.6118 183.141 98.5435C182.812 99.3507 182.949 100.261 182.962 101.12C183.086 108.513 174.313 114.108 174.587 121.502C174.697 124.43 176.264 127.161 176.552 130.089C177.032 134.967 173.961 139.453 171.019 143.498C174.05 143.665 177.033 142.736 179.357 140.9C182.462 150.623 182.863 160.93 180.523 170.84H184.731C185.146 170.813 185.564 170.862 185.96 170.986C186.33 171.148 186.661 171.378 186.933 171.664C190.867 175.348 193.503 180.784 192 185.808L200.955 182.652C203.098 181.896 205.273 181.128 207.137 179.882C209.001 178.637 210.564 176.83 210.957 174.708C211.199 173.42 211.121 171.883 212.25 171.136C212.806 170.858 213.399 170.652 214.014 170.522C216.472 169.706 217.559 167.036 218.062 164.631C218.679 161.679 218.876 158.663 218.647 155.662C218.249 150.638 216.668 145.537 217.97 140.634C218.706 137.882 220.342 135.319 220.474 132.476C220.689 127.792 216.792 123.756 216.211 119.097C215.805 115.851 217.052 112.571 216.645 109.321C216.419 107.645 215.766 106.046 214.743 104.658C213.719 103.27 212.355 102.135 210.765 101.347C209.664 100.815 208.48 100.458 207.393 99.8745C204.912 98.5177 203.327 96.0832 201.074 94.4087C198.821 92.7342 195.07 92.103 193.375 94.2799L197.053 92.9274Z" fill="#925978"/>
<g opacity="0.1">
<path opacity="0.1" d="M182.953 99.3336C182.935 99.499 182.926 99.6653 182.926 99.8316C182.94 99.6685 182.949 99.501 182.953 99.3336Z" fill="black"/>
<path opacity="0.1" d="M216.161 116.521C216.325 114.245 216.865 111.961 216.664 109.694C216.513 111.97 215.974 114.254 216.161 116.521Z" fill="black"/>
<path opacity="0.1" d="M176.552 127.835C176.287 125.173 174.967 122.682 174.656 120.025C174.594 120.512 174.571 121.003 174.587 121.493C174.697 124.391 176.228 127.101 176.538 129.986C176.614 129.271 176.618 128.551 176.552 127.835Z" fill="black"/>
<path opacity="0.1" d="M217.989 138.41C217.561 140.157 217.407 141.954 217.532 143.743C217.577 142.699 217.73 141.663 217.989 140.647C218.724 137.895 220.36 135.332 220.492 132.489C220.514 131.984 220.49 131.479 220.419 130.978C220.063 133.532 218.642 135.911 217.989 138.41Z" fill="black"/>
<path opacity="0.1" d="M179.357 138.642C177.452 140.143 175.093 141.044 172.614 141.218C172.093 141.982 171.553 142.729 171.019 143.468C174.05 143.635 177.033 142.706 179.357 140.87C181.027 146.09 181.921 151.501 182.017 156.95C182.152 150.754 181.255 144.577 179.357 138.642Z" fill="black"/>
<path opacity="0.1" d="M218.075 162.381C217.573 164.786 216.485 167.457 214.027 168.268C213.412 168.397 212.818 168.605 212.264 168.886C211.135 169.633 211.213 171.179 210.971 172.459C210.578 174.58 209.02 176.383 207.151 177.611C205.282 178.839 203.112 179.629 200.969 180.385L192.425 183.39C192.381 184.196 192.243 184.995 192.014 185.773L200.969 182.617C203.112 181.862 205.287 181.093 207.151 179.848C209.015 178.603 210.578 176.795 210.971 174.674C211.213 173.386 211.135 171.849 212.264 171.102C212.82 170.824 213.413 170.617 214.027 170.488C216.485 169.672 217.573 167.001 218.075 164.597C218.596 162.095 218.812 159.545 218.72 156.997C218.659 158.805 218.444 160.606 218.075 162.381Z" fill="black"/>
<path opacity="0.1" d="M186.947 169.402C186.675 169.114 186.344 168.882 185.973 168.719C185.577 168.597 185.16 168.548 184.744 168.573H181.011C180.865 169.32 180.71 170.067 180.555 170.81H184.763C185.178 170.783 185.596 170.832 185.992 170.956C186.362 171.118 186.693 171.348 186.965 171.634C189.843 174.331 192.023 177.963 192.397 181.69C192.859 177.233 190.401 172.648 186.947 169.402Z" fill="black"/>
</g>
<path opacity="0.1" d="M166.071 184.034C166.071 184.034 169.47 182.695 170.229 184.034C170.987 185.374 166.071 184.034 166.071 184.034Z" fill="black"/>
<path opacity="0.1" d="M167.272 186.331C167.272 186.331 170.672 184.992 171.435 186.331C172.198 187.671 167.272 186.331 167.272 186.331Z" fill="black"/>
<path d="M405.972 175.572C404.679 175.572 403.415 175.932 402.34 176.607C401.265 177.282 400.427 178.242 399.932 179.364C399.437 180.487 399.307 181.723 399.56 182.914C399.812 184.106 400.435 185.201 401.349 186.06C402.263 186.92 403.428 187.505 404.697 187.742C405.965 187.979 407.28 187.857 408.474 187.392C409.669 186.927 410.69 186.14 411.409 185.129C412.127 184.119 412.511 182.931 412.511 181.716C412.506 180.088 411.815 178.527 410.59 177.376C409.365 176.225 407.705 175.576 405.972 175.572ZM386.855 127.358V133.502H393.394L405.164 155.907L400.243 163.433C399.706 164.324 399.424 165.33 399.425 166.353C399.425 170.466 402.418 172.497 406.475 172.497H444.704V166.589H407.274C407.165 166.596 407.056 166.58 406.954 166.544C406.851 166.507 406.759 166.451 406.681 166.378C406.604 166.305 406.544 166.218 406.505 166.122C406.467 166.026 406.45 165.923 406.457 165.821C406.543 165.555 406.659 165.299 406.804 165.056L410.071 160.209H434.428C435.605 160.218 436.762 159.922 437.771 159.353C438.78 158.784 439.603 157.964 440.149 156.984L451.923 137.959C452.153 137.476 452.265 136.951 452.252 136.422C452.247 136.027 452.158 135.636 451.99 135.274C451.822 134.911 451.578 134.584 451.273 134.312C450.968 134.04 450.608 133.828 450.214 133.689C449.821 133.55 449.401 133.486 448.981 133.502H400.59L397.483 127.358H386.855ZM438.161 175.572C436.868 175.572 435.604 175.933 434.53 176.609C433.455 177.285 432.618 178.245 432.124 179.367C431.63 180.49 431.501 181.726 431.754 182.917C432.006 184.109 432.629 185.203 433.544 186.062C434.459 186.921 435.624 187.506 436.892 187.742C438.16 187.979 439.474 187.857 440.669 187.392C441.863 186.927 442.884 186.139 443.602 185.129C444.321 184.119 444.704 182.931 444.704 181.716C444.699 180.087 444.008 178.526 442.782 177.375C441.556 176.223 439.894 175.575 438.161 175.572Z" fill="#899878"/>
<path d="M429.795 144.357H424.312V139.204H420.2V144.357H414.717V148.221H420.2V153.373H424.312V148.221H429.795V144.357Z" fill="white"/>
</g>
<defs>
<clipPath id="clip0">
<rect width="510" height="368" fill="white"/>
</clipPath>
</defs>
</svg>
