<svg width="205" height="168" viewBox="0 0 205 168" fill="none" xmlns="http://www.w3.org/2000/svg">
<g style="mix-blend-mode:multiply" opacity="0.3">
<path d="M205 163.541C175.533 158.099 19.576 146.914 0 156.626C16.713 165.668 190.675 173.086 205 163.541Z" fill="#431F00"/>
</g>
<path d="M177.893 22.1957C178.409 20.1258 177.893 18.2079 176.722 17.9155C175.55 17.6232 174.156 19.085 173.629 21.1315C173.102 23.178 173.629 25.1192 174.801 25.4116C175.972 25.7039 177.366 24.2772 177.893 22.1957Z" fill="#E59673"/>
<g style="mix-blend-mode:multiply" opacity="0.3">
<path d="M177.214 22.1607C177.659 20.4182 177.214 18.7927 176.195 18.5354C175.175 18.2781 174.016 19.506 173.582 21.2602C173.149 23.0143 173.582 24.6281 174.601 24.8854C175.621 25.1427 176.78 23.9148 177.214 22.1607Z" fill="#673B00"/>
</g>
<path d="M156.433 21.4941C155.777 19.4593 154.699 18.5939 153.527 18.9681C152.356 19.3424 151.548 20.8159 152.204 22.8507C152.86 24.8855 154.336 26.2303 155.495 25.8561C156.655 25.4819 157.077 23.5289 156.433 21.4941Z" fill="#E59673"/>
<g style="mix-blend-mode:multiply" opacity="0.3">
<path d="M156.667 21.7279C156.14 20.0907 155.273 19.389 154.324 19.6931C153.375 19.9971 152.719 21.1783 153.258 22.8155C153.797 24.4527 154.968 25.5402 155.905 25.2479C156.843 24.9555 157.194 23.3651 156.667 21.7279Z" fill="#673B00"/>
</g>
<path d="M174.601 160.796V160.574L171.193 159.019L171.567 149.663L168.346 148.494L168.733 141.477L166.647 141.091L166.917 129.467L162.383 125.667L158.869 126.123L158.412 129.467L156.362 129.327L156.023 125.456L151.114 123.714L150.821 117.422L147.752 116.253L144.671 116.837L144.496 122.685L140.325 123.07L139.951 115.247L135.405 112.125L135.593 101.6L127.393 99.3545L117.026 109.423L115.585 158.434C135.968 159.03 156.409 159.884 174.601 160.796Z" fill="#B28869"/>
<g style="mix-blend-mode:multiply" opacity="0.5">
<path d="M128.072 159.592C112.375 157.522 28.3954 155.686 17.958 159.381C26.8609 162.819 120.446 163.217 128.072 159.592Z" fill="#431F00"/>
</g>
<path d="M11.3277 130.192L40.836 122.369L54.6706 136.636L50.512 159.65H17.3137L11.3277 130.192Z" fill="#A8693F"/>
<g opacity="0.8">
<g style="mix-blend-mode:overlay" opacity="0.8">
<path d="M11.3277 130.192L17.3137 159.65L40.4143 158.259L40.4494 122.462L11.3277 130.192Z" fill="#F2E3A5"/>
</g>
<g style="mix-blend-mode:multiply" opacity="0.2">
<path d="M18.7429 128.239L12.8857 139.641L10.8357 129.993L18.7429 128.239Z" fill="#431F00"/>
</g>
<g style="mix-blend-mode:multiply" opacity="0.3">
<path d="M33.8309 124.146L40.1214 131.315L46.5643 125.76L40.836 122.369L33.8309 124.146Z" fill="#431F00"/>
</g>
<g style="mix-blend-mode:multiply" opacity="0.3">
<path d="M33.9714 158.645L40.2737 148.272L45.9786 158.797L40.1214 159.674L33.9714 158.645Z" fill="#431F00"/>
</g>
</g>
<path d="M77.7009 71.7209L79.95 28.838L94.5929 22.4061L118.9 31.7616L116.756 88.0929L77.7009 71.7209Z" fill="#96744B"/>
<g style="mix-blend-mode:multiply" opacity="0.3">
<path d="M117.143 77.8955L118.9 31.7616L94.792 22.488L93.3277 73.6739L117.143 77.8955Z" fill="#431F00"/>
</g>
<path d="M49.8326 60.05L62.2497 53.127L72.3943 58.7285L73.7297 81.2517L52.3745 83.5906L49.8326 60.05Z" fill="#96744B"/>
<g style="mix-blend-mode:multiply" opacity="0.3">
<path d="M51.4258 60.5529L56.8612 69.92L53.6515 82.924L57.7866 71.7209L62.2263 81.7429L58.3255 69.6744L59.7898 56.1324L57.5406 68.1892L51.4258 60.5529Z" fill="#431F00"/>
</g>
<g style="mix-blend-mode:multiply" opacity="0.3">
<path d="M73.5892 79.0066L72.3943 58.7287L62.4255 53.2207L61.8866 79.3223L73.5892 79.0066Z" fill="#431F00"/>
</g>
<path d="M43.9286 160.399L122.707 159.814L129.443 73.475L86.6857 63.3361L40.4143 71.1362L43.9286 160.399Z" fill="url(#paint0_linear)"/>
<g style="mix-blend-mode:overlay">
<path d="M41.738 71.9667L43.9286 160.399L83.4643 159.089L86.6857 63.1375L41.738 71.9667Z" fill="#F2E3A5"/>
</g>
<path d="M154.043 153.382L153.902 160.258H157.264L156.245 152.797L154.043 153.382Z" fill="#673B00"/>
<path d="M177.905 153.534L177.764 160.399L179.814 160.258L179.99 152.949L177.905 153.534Z" fill="#673B00"/>
<path d="M184.887 91.3206C184.594 86.6429 184.301 75.0071 181.794 64.0613C181.496 57.2169 181.963 50.3606 183.188 43.6197C163.344 33.738 150.329 43.9471 150.329 43.9471L153.844 67.4175C152.262 81.1817 151.841 95.1564 151.923 95.1564L153.223 156.446L157.569 155.698L165.136 96.0568C166.605 96.0332 168.071 95.9356 169.529 95.7645L177.413 156.048H181.126L184.84 91.4376V91.309L184.887 91.3206Z" fill="url(#paint1_linear)"/>
<path d="M181.689 62.0732C181.6 55.8889 182.098 49.7101 183.176 43.6196C181.923 42.9881 180.693 42.4502 179.486 41.9707L179.229 59.7811L181.689 62.0732Z" fill="#7EB7C4"/>
<g style="mix-blend-mode:multiply" opacity="0.3">
<path d="M179.018 156.072H181.161L184.875 91.4609V91.3323C184.582 86.6546 184.289 75.0188 181.782 64.073C181.325 60.8687 182.251 50.8233 182.251 50.8233C181.844 50.7767 181.432 50.8375 181.055 50.9997C180.679 51.1618 180.352 51.4195 180.107 51.7472C179.873 59.0678 179.767 71.8614 179.685 86.7365C179.685 87.6019 176.171 85.567 176.171 86.4441C176.171 87.7422 179.685 91.9872 179.685 93.3204C179.521 114.066 179.404 137.747 179.018 156.072Z" fill="#431F00"/>
</g>
<path d="M175.199 47.4787L176.956 41.117C170.682 38.7616 163.799 38.5722 157.405 40.5791L159.021 47.8412L175.199 47.4787Z" fill="#7EB7C4"/>
<path d="M170.665 41.772C170.665 40.3219 168.533 39.1407 165.909 39.1407C163.285 39.1407 161.142 40.3102 161.142 41.772C161.657 43.0934 163.719 44.4032 166.343 44.4032C167.254 44.5109 168.176 44.3102 168.96 43.8332C169.743 43.3561 170.344 42.6303 170.665 41.772Z" fill="#597B84"/>
<g style="mix-blend-mode:multiply" opacity="0.3">
<path d="M167.175 43.1167L183.165 43.6079C183.165 43.6079 171.708 36.3925 158.295 40.2867C163.707 39.1407 166.05 42.6723 167.175 43.1167Z" fill="#431F00"/>
</g>
<path d="M162.407 41.3978C162.407 41.3978 159.923 29.3176 164.75 28.3938C168.17 29.0136 167.772 26.1485 169.635 41.62C166.495 44.988 162.407 41.3978 162.407 41.3978Z" fill="#FFB38A"/>
<g style="mix-blend-mode:multiply" opacity="0.3">
<path d="M162.044 39.1174L167.175 43.1169L168.733 42.5322L169.635 41.7019L168.838 35.9015L161.458 36.3459L162.044 39.1174Z" fill="#673B00"/>
</g>
<path d="M177.331 63.2193L180.763 59.6876L178.643 59.1731L177.331 63.2193Z" fill="#2D464C"/>
<path d="M176.487 54.7527C176.487 54.7527 179.791 53.8405 179.744 58.2609C179.697 62.6814 177.987 61.5704 176.359 59.7929C174.73 58.0154 174.929 55.4426 176.487 54.7527Z" fill="#FFB38A"/>
<path d="M157.053 51.139L178.303 50.0865L174.637 73.9078L159.56 72.3524L157.053 51.139Z" fill="#EAD67F"/>
<g style="mix-blend-mode:multiply" opacity="0.3">
<path d="M158.729 54.659L159.314 72.3524L174.637 73.9078L178.303 50.0865L177.331 51.7939L158.729 54.659Z" fill="#673B00"/>
</g>
<path d="M174.976 22.991C175.126 22.2204 175.201 21.4371 175.199 20.6521C175.421 9.27359 170.162 6.25647 164.961 6.25647C159.759 6.25647 155.437 13.0625 155.437 19.7283C155.34 20.4226 155.376 21.1288 155.542 21.8098C154.429 25.9262 152.672 38.1117 163.906 38.1117C172.2 37.3165 174.543 35.0712 174.976 22.991Z" fill="#E59673"/>
<path d="M172.493 21.0146C172.493 12.8286 168.721 6.24475 164.035 6.23305C159.349 6.22136 154.851 11.0511 156.386 21.5292C154.137 37.3164 159.701 37.1059 164.387 37.1176C173.992 34.9776 172.481 29.1655 172.493 21.0146Z" fill="#FFB38A"/>
<path d="M155.226 14.267C154.622 14.7065 154.16 15.3123 153.896 16.0102C153.631 16.7081 153.577 17.4678 153.738 18.1962L154.91 23.2482L155.753 22.9675L156.643 13.2729L155.226 14.267Z" fill="#673B00"/>
<path d="M174.906 14.2669C175.308 14.6529 175.621 15.1217 175.823 15.6407C176.026 16.1597 176.112 16.7164 176.077 17.2723L175.749 23.1194L174.871 22.9791L172.985 12.4542L174.906 14.2669Z" fill="#673B00"/>
<path d="M175.328 15.2026L177.565 4.18655L164.785 0L154.5 4.02283L155.741 14.2319L165.347 12.5363L175.328 15.2026Z" fill="#7EB7C4"/>
<g style="mix-blend-mode:multiply" opacity="0.3">
<path d="M175.585 13.9279L177.565 4.18657L164.808 0L164.387 10.6184C164.387 10.6184 172.083 12.9456 175.585 13.9279Z" fill="#431F00"/>
</g>
<path d="M155.8 14.2319L152.789 12.0684C152.605 11.9379 152.458 11.7611 152.363 11.5558C152.268 11.3505 152.23 11.124 152.251 10.899C152.276 10.6651 152.365 10.4426 152.507 10.2552C152.649 10.0677 152.84 9.92244 153.059 9.83481L158.459 7.68307C160.042 7.0447 161.803 7.00312 163.414 7.56612L175.445 11.7176C175.696 11.8019 175.925 11.9412 176.116 12.1253C176.306 12.3095 176.453 12.5337 176.546 12.7818C176.641 13.0299 176.68 13.296 176.659 13.5608C176.639 13.8257 176.56 14.0828 176.429 14.3137L175.48 15.986L166.179 13.6472C164.345 13.1782 162.431 13.1104 160.568 13.4483L155.8 14.2319Z" fill="#7EB7C4"/>
<path d="M155.8 14.723L152.789 12.5596C152.598 12.4233 152.447 12.2382 152.352 12.0237C152.256 11.8091 152.221 11.5729 152.248 11.3398C152.276 11.1068 152.366 10.8854 152.508 10.6988C152.651 10.5122 152.841 10.3673 153.059 10.2792L158.459 8.11578C160.044 7.48786 161.802 7.44638 163.414 7.99883L175.445 12.1503C175.695 12.2391 175.923 12.3814 176.113 12.5673C176.303 12.7531 176.449 12.978 176.543 13.2262C176.637 13.4745 176.675 13.7402 176.655 14.0048C176.636 14.2694 176.558 14.5264 176.429 14.7581L175.48 16.4187L166.179 14.0799C164.345 13.6109 162.431 13.5431 160.568 13.881L155.8 14.723Z" fill="#597B84"/>
<path d="M157.171 159.814C153.457 159.031 152.485 158.645 140.771 164.351C140.817 166.176 157.264 161.638 157.171 159.814Z" fill="#423321"/>
<path d="M179.088 158.995C177.026 158.036 175.714 164.492 176.663 167.357C182.544 165.661 180.962 159.872 179.088 158.995Z" fill="#423321"/>
<path d="M161.657 22.7804C161.657 21.9267 161.399 21.611 161.025 21.611C160.65 21.611 160.287 21.915 160.287 22.7804C160.287 23.6458 160.603 24.3474 160.978 24.3474C161.353 24.3474 161.657 23.6458 161.657 22.7804Z" fill="#4C3F32"/>
<path d="M171.029 22.3945C171.029 21.5291 170.724 21.2251 170.349 21.2251C169.974 21.2251 169.658 21.5642 169.658 22.3945C169.658 23.2248 169.963 23.9499 170.349 23.9499C170.736 23.9499 171.029 23.2599 171.029 22.3945Z" fill="#4C3F32"/>
<path d="M165.394 22.3009C164.316 22.3009 164.574 25.8092 164.539 27.2242C164.504 28.6392 166.694 28.9082 167.725 28.7328C170.455 27.6686 166.495 25.7156 165.394 22.3009Z" fill="#EA5D49"/>
<path d="M168.346 17.9039C169.807 18.2391 171.299 18.4271 172.797 18.4653C173.418 18.2548 173.465 20.2194 172.469 20.3013C171.474 20.3831 168.487 20.6521 168.346 17.9039Z" fill="#673B00"/>
<path d="M162.524 17.7167C161.142 18.2511 159.71 18.6429 158.248 18.8861C157.616 18.7575 157.85 20.7104 158.822 20.6519C159.795 20.5935 162.829 20.4765 162.524 17.7167Z" fill="#673B00"/>
<g style="mix-blend-mode:multiply" opacity="0.3">
<path d="M95.2723 81.2634C95.2723 81.2634 98.6929 106.897 100.45 108.944L113.043 110.698C110.557 102.486 108.793 94.0732 107.771 85.5552C104.644 84.5846 95.2723 81.2634 95.2723 81.2634Z" fill="#431F00"/>
</g>
<path d="M95.0849 79.7081C95.0849 79.7081 94.5929 103.389 98.4 107.482L109.728 109.143C109.728 109.143 106.506 90.6189 107.865 85.1694C104.749 84.1871 95.0849 79.7081 95.0849 79.7081Z" fill="#FFF8CB"/>
<path d="M154.804 41.5029C153.214 42.1301 151.707 42.9511 150.318 43.9471L153.832 67.1368L155.495 65.9674L154.804 41.5029Z" fill="#7EB7C4"/>
<path d="M84.542 67.8152L62.3786 108.652L42.9094 78.5389L62.0857 114.206L84.542 70.154V67.8152Z" fill="#EAD67F"/>
<g style="mix-blend-mode:multiply" opacity="0.3">
<path d="M165.371 33.7146L168.252 33.3755L166.882 34.9776L165.371 33.7146Z" fill="#673B00"/>
</g>
<g style="mix-blend-mode:multiply" opacity="0.3">
<path d="M160.779 156.013L155.507 157.475L160.779 93.4489L168.1 97.5419L160.779 156.013Z" fill="#431F00"/>
</g>
<path d="M164.855 68.1309C163.721 68.1953 162.615 68.5024 161.61 69.0313C159.9 69.7213 158.576 70.4346 158.658 70.6334C159.789 70.5619 160.891 70.251 161.891 69.7213C163.613 69.0313 164.937 68.318 164.855 68.1309Z" fill="#FFB38A"/>
<path d="M165.171 69.6629C165.113 69.4524 163.684 69.6629 161.973 70.1774C160.263 70.692 158.939 71.2416 158.998 71.4404C159.057 71.6392 160.486 71.4404 162.184 70.9142C163.883 70.388 165.171 69.8617 165.171 69.6629Z" fill="#FFB38A"/>
<path d="M165.171 71.6859C162.848 71.6316 160.532 71.9838 158.33 72.7266C160.654 72.7809 162.969 72.4287 165.171 71.6859Z" fill="#FFB38A"/>
<path d="M160.486 70.6802C160.931 71.8496 161.036 73.019 157.838 72.8904C154.64 72.7618 155.495 71.5222 156.854 70.4229C158.213 69.3236 160.005 69.5458 160.486 70.6802Z" fill="#FFB38A"/>
<path d="M158.389 69.8849C158.728 69.4269 159.014 68.9327 159.244 68.4114C159.338 67.6641 159.286 66.9056 159.092 66.1778C158.893 65.6399 159.537 65.6399 159.677 66.0609C159.903 66.7829 159.998 67.5392 159.959 68.2945C159.935 68.8773 159.795 69.4497 159.549 69.9785C159.314 70.5515 158.389 69.8849 158.389 69.8849Z" fill="#FFB38A"/>
<path d="M150.329 43.8652C149.556 45.9234 131.153 79.5094 156.538 74.1534L155.8 70.0604C155.8 70.0604 137.936 74.7381 154.629 48.4728L150.329 43.8652Z" fill="#7EB7C4"/>
<path d="M177.319 63.1141C177.319 63.1141 206.464 88.8415 183.176 43.608L180.271 47.2683C180.271 47.2683 197.843 76.9367 180.705 59.6877L177.319 63.1141Z" fill="#7EB7C4"/>
<path d="M160.931 26.8619C160.931 26.4175 159.759 26.0667 158.436 26.0667C157.112 26.0667 155.952 26.4175 155.952 26.8619C155.952 27.3062 157.124 27.6688 158.436 27.6688C159.748 27.6688 160.931 27.3062 160.931 26.8619Z" fill="#E59673"/>
<path d="M174.25 25.8326C174.168 25.3999 173.008 25.2596 171.661 25.5169C170.314 25.7741 169.318 26.3354 169.318 26.7798C169.318 27.2242 170.56 27.3529 171.919 27.0956C173.278 26.8383 174.344 26.2653 174.25 25.8326Z" fill="#E59673"/>
<g style="mix-blend-mode:multiply" opacity="0.3">
<path d="M156.479 85.1693L153.41 90.8644L153.551 87.2158L156.479 85.1693Z" fill="#431F00"/>
</g>
<path d="M152.286 81.9534L152.087 79.5209L185.086 79.3221L184.992 82.4445L152.286 81.9534Z" fill="#673B00"/>
<g style="mix-blend-mode:overlay" opacity="0.8">
<path d="M152.087 79.5212L152.286 81.9536L177.261 82.3278L177.366 79.3691L152.087 79.5212Z" fill="#F2E3A5"/>
</g>
<g style="mix-blend-mode:multiply" opacity="0.3">
<path d="M152.286 81.2751L152.614 81.9768L152.508 82.889L184.5 84.5379L184.359 82.4563L184.98 82.4095L185.051 81.0997L152.286 81.2751Z" fill="#431F00"/>
</g>
<path d="M163.028 78.8312L163.215 82.5383L168.885 82.8306V78.644L163.028 78.8312Z" fill="#EAD67F"/>
<path d="M175.808 86.3389L182.251 94.326L181.478 96.9573L175.328 88.093L175.808 86.3389Z" fill="#77A3BC"/>
<path d="M152.379 92.2794L156.772 84.6781L158.928 85.8475L153.363 94.4194L152.379 92.2794Z" fill="#77A3BC"/>
<g style="mix-blend-mode:multiply" opacity="0.3">
<path d="M177.319 63.1141C177.319 63.1141 206.464 88.8415 183.176 43.608C182.555 46.5784 199.119 79.4978 180.705 59.6877L177.319 63.1141Z" fill="#431F00"/>
</g>
<path d="M64.5808 72.3992L66.4786 78.5387L74.0928 77.2289L75.85 70.3527L64.5808 72.3992Z" fill="#EAD67F"/>
<path d="M65.6 72.7736L67.158 77.8021L73.39 76.7146L74.8309 71.1013L65.6 72.7736Z" fill="#FFF8CB"/>
<path opacity="0.7" d="M69.1963 137.817L64.8152 148.599L69.1143 156.891L78.146 145.722L69.1963 137.817ZM65.9046 148.202L69.3252 140.074L75.3346 146.073L69.2432 154.189L65.9046 148.202Z" fill="#D67641"/>
<path opacity="0.7" d="M68.8917 141.781L69.29 147.395L70.0749 147.313L70.4614 142.927L68.8917 141.781Z" fill="#D67641"/>
<path opacity="0.7" d="M68.8448 149.453L69.0323 151.534L70.0983 150.915L70.3208 149.184L68.8448 149.453Z" fill="#D67641"/>
<g style="mix-blend-mode:overlay" opacity="0.7">
<path d="M166.706 26.7213C166.507 26.0313 166.015 25.5519 165.593 25.6688C165.171 25.7858 165.007 26.4523 165.195 27.154C165.382 27.8556 165.898 28.3234 166.308 28.2065C166.718 28.0895 166.905 27.423 166.706 26.7213Z" fill="#FFF5E6"/>
</g>
<path d="M48.3214 156.458L61.7929 107.774L78.4857 138.764L62.0857 114.499L48.3214 156.458Z" fill="#EAD67F"/>
<g style="mix-blend-mode:multiply" opacity="0.2">
<path d="M15.8143 152.505L24.4594 159.674L17.3137 159.65L15.8143 152.505Z" fill="#431F00"/>
</g>
<g style="mix-blend-mode:multiply" opacity="0.3">
<path d="M96.6429 84.3857L96.7952 86.4322L106.167 89.2155L105.874 87.4613L96.6429 84.3857Z" fill="#431F00"/>
</g>
<g style="mix-blend-mode:multiply" opacity="0.3">
<path d="M96.9357 89.356L97.2285 91.4025L106.167 92.8642L105.721 91.5545L96.9357 89.356Z" fill="#431F00"/>
</g>
<g style="mix-blend-mode:multiply" opacity="0.3">
<path d="M97.2286 93.8934L97.5214 95.9399L106.6 96.9573L105.874 95.3552L97.2286 93.8934Z" fill="#431F00"/>
</g>
<g style="mix-blend-mode:multiply" opacity="0.3">
<path d="M102.945 101.202L102.793 102.512L107.338 103.097L107.186 101.343L102.945 101.202Z" fill="#431F00"/>
</g>
<path opacity="0.6" d="M57.2009 127.07C57.2009 127.07 57.5991 133.209 58.1849 133.209C58.7706 133.209 78.2866 131.841 78.2866 131.841L78.6849 120.346L57.2009 127.07ZM76.2717 130.157C76.2717 130.157 59.9537 131.946 59.4851 131.97C59.0166 131.993 58.7706 128.087 58.7706 128.087L76.342 123.141L76.2717 130.157Z" fill="#D67641"/>
<path opacity="0.6" d="M60.5277 128.731L60.6566 130.555L74.456 128.988L74.5849 125.737L60.5277 128.731Z" fill="#D67641"/>
<path d="M169.424 30.1712C169.047 30.7267 168.531 31.1729 167.926 31.4646C167.321 31.7562 166.65 31.8829 165.98 31.8318C165.284 31.8921 164.584 31.7551 163.963 31.4366C163.341 31.118 162.822 30.6307 162.465 30.0309H162.184C162.184 31.364 163.906 32.4282 165.991 32.4282C168.077 32.4282 169.599 31.4459 169.763 30.1829L169.424 30.1712Z" fill="#4C3F32"/>
<path style="mix-blend-mode:overlay" d="M183.176 43.6197C178.866 41.4034 174.185 39.9962 169.365 39.4682C169.26 38.6145 169.166 37.831 169.084 37.1293C173.243 35.7377 176.113 32.6738 176.113 29.1188C176.057 27.8606 175.876 26.611 175.574 25.3883C176.186 25.0805 176.717 24.6333 177.124 24.0827C177.531 23.5322 177.802 22.8938 177.917 22.2191C178.432 20.1493 177.917 18.2314 176.745 17.939C176.471 17.8913 176.19 17.9099 175.925 17.9933C175.66 18.0768 175.419 18.2226 175.222 18.4185C175.222 17.6701 175.117 16.9801 175.023 16.3252L175.492 16.4422L176.441 14.7816C176.674 14.1326 176.715 13.43 176.558 12.7585C176.447 12.479 176.27 12.2303 176.042 12.0334L177.635 4.20996L164.855 0.0117188L154.57 4.04622L155.167 8.98121L153.071 9.81153C152.852 9.89915 152.661 10.0444 152.519 10.2319C152.376 10.4193 152.288 10.6419 152.262 10.8757C152.24 11.0073 152.24 11.1418 152.262 11.2733C152.262 11.2733 152.262 11.3318 152.262 11.3551C152.232 11.5894 152.266 11.8276 152.361 12.0439C152.456 12.2603 152.608 12.4467 152.801 12.5831L155.812 14.7465C155.812 14.7465 155.531 17.939 155.507 19.6347C155.297 19.3409 154.999 19.1206 154.656 19.0052C154.314 18.8897 153.943 18.8849 153.598 18.9915C152.426 19.3657 151.618 20.8392 152.274 22.874C152.584 24.0156 153.295 25.0078 154.277 25.669C154.042 27.1445 153.889 28.632 153.82 30.1245C153.82 34.4514 156.667 37.2463 162.02 37.8193C162.02 38.4742 162.149 39.0823 162.219 39.5969C158.025 40.0854 154.008 41.569 150.505 43.9237C149.767 45.8767 133.109 76.3403 153.328 74.7031C152.344 85.7425 152.063 95.2148 152.157 95.2148L153.457 156.505L157.803 155.756L165.371 96.1153C166.839 96.0917 168.305 95.9941 169.763 95.8229L177.647 156.107H181.361L185.074 91.496V91.3674C184.8 83.2285 183.974 75.1175 182.602 67.0901C189.549 71.9432 199.916 76.1181 183.176 43.6197ZM151.747 53.3961L153.879 67.4292L153.563 70.3762C149.732 70.5282 143.137 68.9261 151.747 53.3961ZM181.665 60.6699C181.663 57.3411 181.847 54.0148 182.216 50.7064C186.152 57.7581 193.707 72.411 181.665 60.6466V60.6699Z" fill="url(#paint2_linear)"/>
<g style="mix-blend-mode:multiply" opacity="0.3">
<path d="M155.8 14.805C155.8 15.8341 155.8 18.3133 155.8 18.3133C155.8 18.3133 166.343 25.9146 175.984 20.6521C176.103 18.9936 176.04 17.327 175.796 15.6821C177.05 13.5888 176.569 12.4662 174.273 11.9282C171.696 11.1564 165.687 8.61872 161.739 7.74165C159.877 7.25049 155.05 9.34376 152.555 10.6652C150.974 12.4661 155.554 14.1267 155.8 14.805Z" fill="#431F00"/>
</g>
<g style="mix-blend-mode:multiply" opacity="0.3">
<path d="M177.331 51.794L173.758 72.5982L160.099 72.3058L174.637 73.9079L178.303 50.0867L177.331 51.794Z" fill="#431F00"/>
</g>
<g style="mix-blend-mode:multiply" opacity="0.3">
<path d="M80.3952 30.452L86.674 45.292L79.5166 63.921L87.7166 48.1337L92.4023 63.7807L88.888 45.2102L93.5737 25.4819L88.0095 42.8713L80.3952 30.452Z" fill="#431F00"/>
</g>
<defs>
<linearGradient id="paint0_linear" x1="3555.26" y1="27394.2" x2="10343.9" y2="32401.7" gradientUnits="userSpaceOnUse">
<stop stop-color="#EAD67F"/>
<stop offset="0.99" stop-color="#EAB57D"/>
</linearGradient>
<linearGradient id="paint1_linear" x1="7956.44" y1="39150.7" x2="5610.75" y2="39273" gradientUnits="userSpaceOnUse">
<stop stop-color="#597B84"/>
<stop offset="1" stop-color="#599ABF"/>
</linearGradient>
<linearGradient id="paint2_linear" x1="135.968" y1="-3.4264" x2="187.938" y2="144.854" gradientUnits="userSpaceOnUse">
<stop stop-color="#FFFCE9"/>
<stop offset="1" stop-color="#624E75"/>
</linearGradient>
</defs>
</svg>
