<svg width="199" height="36" viewBox="0 0 199 36" fill="none" xmlns="http://www.w3.org/2000/svg">
<path d="M1 9.34418L15.4337 1" stroke="#415C17" stroke-width="1.5"/>
<path d="M15.3666 1L29.8003 9.34418" stroke="#415C17" stroke-width="1.5"/>
<path d="M1.10071 25.8329L15.3674 34.2439" stroke="#415C17" stroke-width="1.5"/>
<path d="M1.08325 25.9192V9.23071" stroke="#415C17" stroke-width="1.5"/>
<path d="M29.7167 9.36426L15.3167 17.5313V34.1967L29.7167 25.964V9.36426Z" fill="#415C17" stroke="#415C17"/>
<path d="M54.5645 30.2235C52.6979 30.2235 50.9059 29.9494 49.1885 29.4011C47.4961 28.828 46.1396 28.0678 45.1192 27.1208C44.7459 26.7719 44.5592 26.3358 44.5592 25.8124C44.5592 25.4636 44.6588 25.1645 44.8579 24.9152C45.0569 24.6411 45.2935 24.504 45.5672 24.504C45.8908 24.504 46.2392 24.6411 46.6125 24.9152C48.9272 26.7096 51.5655 27.6068 54.5272 27.6068C56.6676 27.6068 58.3103 27.1956 59.4552 26.3731C60.6001 25.5507 61.1725 24.3795 61.1725 22.8592C61.1725 21.987 60.8988 21.2892 60.3512 20.7658C59.8036 20.2175 59.0819 19.7815 58.1859 19.4574C57.2899 19.1334 56.0828 18.797 54.5645 18.4481C52.5236 17.9746 50.8436 17.4762 49.5245 16.9528C48.2303 16.4295 47.1725 15.6818 46.3512 14.7099C45.5548 13.738 45.1565 12.467 45.1565 10.8969C45.1565 9.40162 45.5548 8.08083 46.3512 6.93439C47.1725 5.76313 48.3049 4.86591 49.7485 4.24287C51.2169 3.59492 52.8845 3.27094 54.7512 3.27094C56.4935 3.27094 58.1112 3.54507 59.6045 4.09334C61.1228 4.61669 62.3921 5.3768 63.4125 6.37366C63.8108 6.77245 64.0099 7.20848 64.0099 7.68204C64.0099 8.03089 63.9103 8.3425 63.7112 8.61659C63.5121 8.86585 63.2756 8.99041 63.0019 8.99041C62.7281 8.99041 62.3672 8.8533 61.9192 8.57921C60.6996 7.58231 59.5672 6.88459 58.5219 6.48581C57.4765 6.08702 56.2196 5.88769 54.7512 5.88769C52.6855 5.88769 51.0801 6.32386 49.9352 7.19607C48.7903 8.04344 48.2179 9.23967 48.2179 10.7848C48.2179 12.1056 48.7156 13.1025 49.7112 13.7753C50.7316 14.4233 52.2872 14.9965 54.3779 15.4949C56.6428 16.0432 58.4223 16.554 59.7165 17.0276C61.0108 17.4762 62.0809 18.1615 62.9272 19.0836C63.7983 20.0058 64.2339 21.2394 64.2339 22.7845C64.2339 24.2548 63.8232 25.5507 63.0019 26.6722C62.2055 27.7937 61.0729 28.6659 59.6045 29.289C58.1361 29.912 56.4561 30.2235 54.5645 30.2235ZM82.5716 11.3455C83.0444 11.3455 83.4053 11.4826 83.6543 11.7567C83.928 12.0308 84.0649 12.3922 84.0649 12.8408V28.6535C84.0649 29.0771 83.928 29.4261 83.6543 29.7002C83.4053 29.9743 83.0444 30.1114 82.5716 30.1114C82.1236 30.1114 81.7627 29.9868 81.4889 29.7375C81.24 29.4635 81.1156 29.1145 81.1156 28.6908V26.8217C80.5431 27.9182 79.7343 28.7532 78.6889 29.3263C77.6684 29.8995 76.5111 30.1861 75.2169 30.1861C73.0516 30.1861 71.4213 29.588 70.3263 28.3918C69.2311 27.1706 68.6836 25.3762 68.6836 23.0087V12.8408C68.6836 12.3922 68.8204 12.0308 69.0943 11.7567C69.368 11.4826 69.7413 11.3455 70.2143 11.3455C70.6871 11.3455 71.048 11.4826 71.2969 11.7567C71.5707 12.0308 71.7076 12.3922 71.7076 12.8408V22.934C71.7076 24.5538 72.0311 25.7501 72.6783 26.5227C73.3253 27.2703 74.3457 27.6441 75.7396 27.6441C77.3324 27.6441 78.6143 27.1332 79.5849 26.1115C80.5556 25.0648 81.0409 23.694 81.0409 21.9994V12.8408C81.0409 12.3922 81.1777 12.0308 81.4516 11.7567C81.7253 11.4826 82.0987 11.3455 82.5716 11.3455ZM105.067 16.3921C106.585 16.7909 107.755 17.5385 108.576 18.635C109.422 19.7315 109.845 21.1023 109.845 22.7471C109.845 25.0648 109.086 26.8467 107.568 28.0927C106.05 29.3139 103.897 29.9245 101.109 29.9245H91.7013C91.2284 29.9245 90.8427 29.7873 90.544 29.5133C90.2701 29.2392 90.1333 28.8778 90.1333 28.4292V5.06528C90.1333 4.6167 90.2701 4.25533 90.544 3.9812C90.8427 3.70707 91.2284 3.56999 91.7013 3.56999H100.699C103.411 3.56999 105.515 4.16811 107.008 5.36434C108.501 6.56057 109.248 8.25519 109.248 10.4483C109.248 11.8688 108.875 13.09 108.128 14.1118C107.406 15.1335 106.386 15.8937 105.067 16.3921ZM93.1573 15.2706H100.251C102.217 15.2706 103.698 14.8718 104.693 14.0744C105.714 13.277 106.224 12.1181 106.224 10.5979C106.224 7.60727 104.233 6.11198 100.251 6.11198H93.1573V15.2706ZM100.811 27.3825C102.876 27.3825 104.395 27.0086 105.365 26.261C106.361 25.4884 106.859 24.2922 106.859 22.6723C106.859 19.4325 104.843 17.8126 100.811 17.8126H93.1573V27.3825H100.811ZM122.346 30.1861C120.653 30.1861 119.147 29.7999 117.828 29.0273C116.534 28.2547 115.526 27.1582 114.804 25.7376C114.107 24.3171 113.759 22.6723 113.759 20.8032C113.759 18.9341 114.12 17.2769 114.842 15.8314C115.588 14.3859 116.621 13.2644 117.94 12.467C119.259 11.6695 120.778 11.2707 122.495 11.2707C123.441 11.2707 124.374 11.4078 125.295 11.6819C126.241 11.9312 127.062 12.305 127.759 12.8034C128.207 13.1025 128.518 13.4015 128.692 13.7006C128.891 13.9747 128.991 14.2863 128.991 14.6351C128.991 14.984 128.891 15.2706 128.692 15.4949C128.518 15.7192 128.282 15.8314 127.983 15.8314C127.809 15.8314 127.622 15.7816 127.423 15.6818C127.224 15.5821 127.05 15.4825 126.9 15.3828C126.776 15.283 126.689 15.2208 126.639 15.1959C125.992 14.7722 125.37 14.4358 124.772 14.1865C124.2 13.9373 123.49 13.8127 122.644 13.8127C120.827 13.8127 119.409 14.4358 118.388 15.6818C117.393 16.903 116.895 18.6101 116.895 20.8032C116.895 22.9963 117.393 24.6909 118.388 25.8872C119.409 27.0834 120.827 27.6815 122.644 27.6815C123.49 27.6815 124.212 27.557 124.81 27.3077C125.432 27.0584 126.054 26.722 126.676 26.2984C126.95 26.1239 127.211 25.9744 127.46 25.8498C127.709 25.7252 127.921 25.6629 128.095 25.6629C128.369 25.6629 128.593 25.775 128.767 25.9993C128.966 26.2236 129.066 26.5103 129.066 26.8591C129.066 27.1831 128.978 27.4822 128.804 27.7563C128.63 28.0056 128.306 28.2921 127.834 28.6161C127.137 29.0896 126.29 29.4759 125.295 29.7749C124.324 30.049 123.341 30.1861 122.346 30.1861ZM141.89 11.2707C144.031 11.2707 145.649 11.8813 146.743 13.1025C147.839 14.2987 148.386 16.093 148.386 18.4855V28.6161C148.386 29.0896 148.25 29.4635 147.975 29.7375C147.702 29.9868 147.341 30.1114 146.893 30.1114C146.421 30.1114 146.047 29.9868 145.773 29.7375C145.499 29.4635 145.362 29.0896 145.362 28.6161V18.5603C145.362 16.9404 145.026 15.7442 144.354 14.9716C143.707 14.199 142.662 13.8127 141.218 13.8127C139.551 13.8127 138.219 14.3237 137.223 15.3454C136.229 16.3671 135.73 17.7503 135.73 19.4948V28.6161C135.73 29.0896 135.594 29.4635 135.319 29.7375C135.071 29.9868 134.71 30.1114 134.237 30.1114C133.764 30.1114 133.391 29.9868 133.117 29.7375C132.843 29.4635 132.706 29.0896 132.706 28.6161V4.84099C132.706 4.41733 132.843 4.06842 133.117 3.79429C133.415 3.52015 133.789 3.38308 134.237 3.38308C134.71 3.38308 135.071 3.52015 135.319 3.79429C135.594 4.04351 135.73 4.3924 135.73 4.84099V14.6351C136.327 13.5386 137.162 12.7037 138.231 12.1305C139.302 11.5574 140.522 11.2707 141.89 11.2707ZM161.354 11.2707C165.909 11.2707 168.186 13.6632 168.186 18.4481V28.6161C168.186 29.0647 168.05 29.4261 167.775 29.7002C167.527 29.9743 167.178 30.1114 166.73 30.1114C166.282 30.1114 165.922 29.9743 165.647 29.7002C165.374 29.4261 165.237 29.0647 165.237 28.6161V26.8217C164.765 27.8934 164.042 28.7282 163.071 29.3263C162.101 29.8995 160.981 30.1861 159.711 30.1861C158.542 30.1861 157.459 29.9494 156.463 29.4759C155.493 29.0023 154.722 28.342 154.149 27.4946C153.577 26.6472 153.29 25.7127 153.29 24.6909C153.29 23.3202 153.639 22.2611 154.335 21.5135C155.033 20.7408 156.178 20.1927 157.77 19.8686C159.363 19.5198 161.578 19.3453 164.415 19.3453H165.237V18.1117C165.237 16.6164 164.926 15.5199 164.303 14.822C163.706 14.1242 162.723 13.7753 161.354 13.7753C159.662 13.7753 157.945 14.2363 156.202 15.1585C155.53 15.5821 155.058 15.794 154.783 15.794C154.485 15.794 154.237 15.6818 154.037 15.4575C153.838 15.2332 153.738 14.9466 153.738 14.5977C153.738 14.2489 153.838 13.9498 154.037 13.7006C154.261 13.4265 154.61 13.1523 155.082 12.8782C155.954 12.3798 156.937 11.9934 158.031 11.7193C159.151 11.4203 160.259 11.2707 161.354 11.2707ZM160.122 27.7937C161.615 27.7937 162.835 27.2953 163.781 26.2984C164.751 25.2766 165.237 23.9683 165.237 22.3733V21.2892H164.565C162.375 21.2892 160.707 21.3889 159.562 21.5882C158.418 21.7627 157.597 22.0742 157.098 22.5228C156.626 22.9464 156.389 23.5819 156.389 24.4293C156.389 25.4012 156.738 26.2112 157.434 26.8591C158.157 27.4822 159.053 27.7937 160.122 27.7937ZM175.253 30.1114C174.805 30.1114 174.431 29.9868 174.133 29.7375C173.859 29.4635 173.722 29.0896 173.722 28.6161V12.8408C173.722 12.3672 173.859 12.006 174.133 11.7567C174.431 11.4826 174.805 11.3455 175.253 11.3455C175.701 11.3455 176.062 11.4826 176.335 11.7567C176.609 12.006 176.746 12.3672 176.746 12.8408V28.6161C176.746 29.1145 176.609 29.4883 176.335 29.7375C176.062 29.9868 175.701 30.1114 175.253 30.1114ZM175.253 7.42036C174.655 7.42036 174.17 7.24587 173.797 6.89701C173.423 6.54815 173.237 6.08702 173.237 5.51387C173.237 4.96559 173.423 4.517 173.797 4.16811C174.17 3.81921 174.655 3.64476 175.253 3.64476C175.85 3.64476 176.335 3.81921 176.709 4.16811C177.082 4.517 177.269 4.96559 177.269 5.51387C177.269 6.08702 177.082 6.54815 176.709 6.89701C176.335 7.24587 175.85 7.42036 175.253 7.42036ZM191.546 11.2707C195.901 11.2707 198.079 13.6756 198.079 18.4855V28.6161C198.079 29.0896 197.942 29.4635 197.669 29.7375C197.419 29.9868 197.058 30.1114 196.586 30.1114C196.113 30.1114 195.739 29.9868 195.466 29.7375C195.191 29.4635 195.055 29.0896 195.055 28.6161V18.6724C195.055 16.9778 194.719 15.7442 194.047 14.9716C193.399 14.199 192.354 13.8127 190.911 13.8127C189.243 13.8127 187.911 14.3237 186.917 15.3454C185.921 16.3671 185.423 17.7503 185.423 19.4948V28.6161C185.423 29.0896 185.286 29.4635 185.013 29.7375C184.763 29.9868 184.402 30.1114 183.93 30.1114C183.457 30.1114 183.083 29.9868 182.81 29.7375C182.535 29.4635 182.399 29.0896 182.399 28.6161V12.8408C182.399 12.3922 182.535 12.0308 182.81 11.7567C183.083 11.4826 183.457 11.3455 183.93 11.3455C184.378 11.3455 184.726 11.4826 184.975 11.7567C185.249 12.0308 185.386 12.3798 185.386 12.8034V14.7099C185.983 13.5884 186.817 12.7411 187.887 12.1679C188.957 11.5698 190.177 11.2707 191.546 11.2707Z" fill="#415C17"/>
</svg>
